<?xml version="1.0" encoding="utf-8"?>
<!-- Generator: Adobe Illustrator 25.2.1, SVG Export Plug-In . SVG Version: 6.00 Build 0)  -->
<svg version="1.1" xmlns="http://www.w3.org/2000/svg" xmlns:xlink="http://www.w3.org/1999/xlink" x="0px" y="0px"
	 viewBox="0 0 500 500" style="enable-background:new 0 0 500 500;" xml:space="preserve">
<style type="text/css">
	.st0{fill:#F5F5F5;}
	.st1{fill:#FFFFFF;}
	.st2{fill:#E0E0E0;}
	.st3{display:none;}
	.st4{display:inline;}
	.st5{fill:#263238;}
	.st6{fill:#EBEBEB;}
	.st7{fill:#FAFAFA;}
	.st8{fill:#FF725E;}
	.st9{fill:#455A64;}
	.st10{opacity:0.3;}
	.st11{opacity:0.6;}
	.st12{fill:#B78876;}
	.st13{fill:#AA6550;}
</style>
<g id="Background_Complete">
	<g>
		<g>
			<path class="st0" d="M91.17,68.46c0-22.5-20.33-40.25-43.63-35.88c-14.65,2.75-26.33,14.72-28.9,29.4
				c-1.6,9.18,0.29,17.81,4.48,24.94H23.1l0.1,0.14c1.4,2.36,3.16,4.05,4.93,6.53l21.22,28.11c2.64,3.5,7.89,3.5,10.53,0
				l20.87-27.64c0,0,3.89-4.64,5.31-7.03l0.08-0.1h-0.01C89.31,81.5,91.17,75.21,91.17,68.46z M54.62,84.38
				c-8.88,0-16.08-7.2-16.08-16.08c0-8.88,7.2-16.08,16.08-16.08c8.88,0,16.08,7.2,16.08,16.08C70.71,77.18,63.51,84.38,54.62,84.38
				z"/>
		</g>
	</g>
	<g>
		<g>
			<path class="st0" d="M485.36,290.12c0-9.92-8.96-17.74-19.23-15.82c-6.46,1.21-11.61,6.49-12.74,12.96
				c-0.71,4.05,0.13,7.85,1.97,11h-0.01l0.05,0.06c0.62,1.04,1.39,1.79,2.17,2.88l9.35,12.39c1.16,1.54,3.48,1.54,4.64,0l9.2-12.19
				c0,0,1.72-2.05,2.34-3.1l0.03-0.04h-0.01C484.55,295.87,485.36,293.1,485.36,290.12z M469.25,297.14c-3.92,0-7.09-3.17-7.09-7.09
				c0-3.92,3.17-7.09,7.09-7.09c3.92,0,7.09,3.17,7.09,7.09C476.34,293.96,473.17,297.14,469.25,297.14z"/>
		</g>
	</g>
	<g>
		<g>
			<g>
				
					<ellipse transform="matrix(0.7071 -0.7071 0.7071 0.7071 -157.299 397.5936)" class="st0" cx="401.29" cy="388.67" rx="40.34" ry="40.34"/>
			</g>
		</g>
		<g>
			<g>
				<path class="st1" d="M401.29,422.25c-18.51,0-33.58-15.06-33.58-33.58s15.06-33.58,33.58-33.58s33.58,15.06,33.58,33.58
					S419.8,422.25,401.29,422.25z M401.29,360.84c-15.35,0-27.83,12.48-27.83,27.83s12.48,27.83,27.83,27.83
					c15.35,0,27.83-12.48,27.83-27.83S416.63,360.84,401.29,360.84z"/>
			</g>
		</g>
		<g>
			<g>
				<path class="st1" d="M401.06,400.15c-6.82,0-12.37-5.55-12.37-12.37c0-6.82,5.55-12.37,12.37-12.37
					c6.82,0,12.37,5.55,12.37,12.37C413.43,394.61,407.88,400.15,401.06,400.15z M401.06,381.17c-3.65,0-6.62,2.97-6.62,6.62
					c0,3.65,2.97,6.62,6.62,6.62c3.65,0,6.62-2.97,6.62-6.62C407.68,384.14,404.71,381.17,401.06,381.17z"/>
			</g>
		</g>
		<g>
			<g>
				<polygon class="st2" points="401.06,387.79 385.43,387.79 388.16,392.61 351.37,409.47 352.61,411.54 389.52,394.87 
					392.05,399.66 				"/>
			</g>
		</g>
		<g>
			<g>
				<path class="st2" d="M351.37,409.47l-0.39-0.38c-1.93-1.88-4.72-2.58-7.3-1.82L329,411.54l8.17,3.59l-3.28,8.73l13.77-4.91
					c3.11-1.11,5.12-4.12,4.95-7.41l0,0L351.37,409.47z"/>
			</g>
		</g>
	</g>
	<g>
		<g>
			<g>
				<g>
					<path class="st2" d="M173.35,417.93c0-0.01,0.11-0.04,0.3-0.1c0.22-0.06,0.5-0.15,0.87-0.25c0.78-0.22,1.9-0.54,3.34-0.95
						c2.93-0.82,7.16-2.01,12.5-3.51l-0.11,0.2c-0.64-2.14-1.36-4.55-2.13-7.12l-0.04-0.12l0.1-0.08c3.13-2.61,6.22-6.05,8.72-10.26
						c1.25-2.11,2.24-4.47,2.92-6.99c0.71-2.52,0.81-5.27,0.47-8c-0.85-5.45-3.62-11-8.22-15c-4.54-4.03-10.59-6.7-17.02-7.33
						c-4.8-0.47-9.57,0.64-13.67,2.73c-4.16,2.01-7.64,5.05-10.18,8.57c-2.56,3.53-3.91,7.65-4.38,11.64
						c-0.06,1.01-0.22,2-0.19,2.99c0.03,0.99,0.06,1.96,0.08,2.93c0.18,1.92,0.49,3.78,1,5.54c0.53,1.75,1.21,3.4,2.03,4.92
						c0.84,1.51,1.83,2.87,2.88,4.09c2.13,2.44,4.58,4.26,6.96,5.62c4.8,2.72,9.25,3.82,12.4,4.29l0.07,0.01l0.01,0.07
						c0.42,1.98,0.73,3.5,0.95,4.54c0.1,0.5,0.18,0.89,0.24,1.17C173.33,417.79,173.35,417.92,173.35,417.93
						c0,0.01-0.04-0.12-0.1-0.37c-0.07-0.28-0.16-0.65-0.28-1.14c-0.25-1.05-0.61-2.58-1.08-4.57l0.09,0.08
						c-3.2-0.43-7.67-1.48-12.55-4.19c-2.42-1.36-4.92-3.19-7.1-5.65c-1.08-1.23-2.09-2.61-2.96-4.15c-0.85-1.54-1.55-3.22-2.09-5
						c-0.53-1.79-0.85-3.68-1.04-5.63c-0.03-0.98-0.06-1.97-0.1-2.97c-0.03-1,0.13-2.01,0.19-3.04c0.46-4.06,1.83-8.28,4.44-11.89
						c2.59-3.6,6.14-6.7,10.37-8.75c4.16-2.14,9.06-3.27,13.96-2.8c6.56,0.64,12.71,3.36,17.33,7.47c2.32,2.05,4.24,4.47,5.61,7.11
						c0.4,0.63,0.66,1.33,0.95,2c0.29,0.67,0.6,1.34,0.79,2.04c0.21,0.69,0.44,1.38,0.63,2.07c0.13,0.71,0.25,1.41,0.38,2.11
						c0.34,2.8,0.23,5.62-0.51,8.19c-0.7,2.57-1.72,4.96-3,7.1c-2.56,4.26-5.67,7.7-8.87,10.33l0.06-0.2
						c0.75,2.58,1.45,4.99,2.08,7.14l0.05,0.16l-0.16,0.04c-5.4,1.44-9.69,2.58-12.65,3.36c-1.44,0.37-2.55,0.67-3.33,0.87
						c-0.36,0.09-0.64,0.16-0.85,0.21C173.44,417.92,173.34,417.94,173.35,417.93z"/>
				</g>
			</g>
		</g>
		<g>
			<g>
				<g>
					<path class="st2" d="M191.95,417.94c0.04,0.15-3.85,1.34-8.69,2.66c-4.84,1.33-8.8,2.28-8.84,2.14
						c-0.04-0.15,3.85-1.34,8.69-2.66C187.95,418.75,191.91,417.8,191.95,417.94z"/>
				</g>
			</g>
		</g>
		<g>
			<g>
				<g>
					<path class="st2" d="M188.09,426.12c0.06,0.13-1.25,0.8-3.01,1.21c-1.75,0.42-3.22,0.43-3.23,0.28c-0.01-0.16,1.4-0.4,3.1-0.82
						C186.66,426.4,188.03,425.98,188.09,426.12z"/>
				</g>
			</g>
		</g>
		<g>
			<g>
				<g>
					<path class="st2" d="M176.92,416.95c-0.01,0-0.04-0.09-0.1-0.28c-0.06-0.22-0.14-0.5-0.23-0.85c-0.2-0.79-0.48-1.88-0.84-3.27
						c-0.72-2.89-1.74-7-2.99-12.06c-0.63-2.55-1.31-5.34-2.04-8.34c-0.18-0.73-0.44-1.47-0.88-2.06c-0.41-0.61-1.19-0.93-1.82-0.61
						c-0.63,0.31-0.93,1.14-0.94,1.91c-0.02,0.78,0.36,1.54,0.89,2.15c1.09,1.24,2.92,1.77,4.63,1.54c1.73-0.21,3.26-1.44,4.06-3.07
						c0.82-1.62,1.01-3.59,0.58-5.42c-0.22-0.91-0.58-1.83-1.24-2.45c-0.63-0.61-1.7-0.83-2.4-0.33c-0.69,0.5-0.81,1.59-0.45,2.39
						c0.36,0.84,1.1,1.48,1.87,2.05c1.53,1.13,3.29,1.97,5.11,2.11c0.9,0.07,1.82-0.05,2.62-0.39c0.8-0.36,1.52-0.91,2.05-1.59
						c0.53-0.68,0.88-1.49,0.92-2.32c0.05-0.83-0.21-1.65-0.76-2.24c-0.53-0.59-1.33-0.93-2.05-0.71c-0.72,0.21-1.26,0.87-1.52,1.58
						c-0.5,1.47-0.06,3.11,0.12,4.61c0.48,3.04,1.03,5.86,1.53,8.44c1.03,5.11,1.87,9.26,2.46,12.18c0.28,1.41,0.51,2.52,0.67,3.31
						c0.07,0.35,0.12,0.64,0.16,0.86c0.03,0.2,0.05,0.3,0.04,0.3c-0.01,0-0.04-0.09-0.09-0.29c-0.06-0.22-0.13-0.5-0.22-0.85
						c-0.19-0.79-0.44-1.89-0.77-3.29c-0.65-2.86-1.58-7.01-2.63-12.15c-0.52-2.57-1.09-5.39-1.6-8.44
						c-0.11-0.77-0.24-1.54-0.32-2.34c-0.08-0.8-0.09-1.67,0.2-2.5c0.3-0.81,0.9-1.6,1.83-1.89c0.94-0.3,1.95,0.15,2.56,0.84
						c0.65,0.69,0.96,1.67,0.9,2.61c-0.04,0.95-0.44,1.87-1.02,2.61c-0.58,0.76-1.36,1.36-2.25,1.76c-0.9,0.39-1.9,0.51-2.87,0.44
						c-1.97-0.15-3.81-1.03-5.4-2.21c-0.79-0.58-1.6-1.27-2.04-2.27c-0.43-0.97-0.34-2.31,0.63-3.05c1-0.69,2.31-0.36,3.09,0.38
						c0.8,0.75,1.17,1.76,1.4,2.72c0.46,1.96,0.26,4.04-0.63,5.79c-0.85,1.75-2.55,3.12-4.46,3.35c-1.87,0.25-3.85-0.32-5.08-1.72
						c-0.59-0.68-1.03-1.57-1.01-2.49c0.02-0.88,0.34-1.88,1.22-2.33c0.43-0.22,0.94-0.22,1.37-0.06c0.45,0.16,0.78,0.48,1.04,0.82
						c0.5,0.69,0.76,1.48,0.95,2.24c0.71,3,1.37,5.8,1.98,8.35c1.19,5.08,2.15,9.2,2.82,12.1c0.32,1.4,0.56,2.5,0.74,3.3
						c0.07,0.35,0.13,0.64,0.18,0.86C176.92,416.85,176.93,416.95,176.92,416.95z"/>
				</g>
			</g>
		</g>
		<g>
			<g>
				<g>
					<path class="st2" d="M191.31,421.68c0.04,0.15-3.11,1.13-7.04,2.21c-3.93,1.07-7.14,1.83-7.18,1.68
						c-0.04-0.15,3.11-1.13,7.04-2.21C188.06,422.29,191.27,421.54,191.31,421.68z"/>
				</g>
			</g>
		</g>
	</g>
</g>
<g id="Background_Simple" class="st3">
	<g class="st4">
		<path class="st0" d="M437.85,94.6l-2.43-4.01C414.9,56.78,377.8,36.4,338.7,38.88c-5.03,0.32-10.03,1-14.97,2.06
			c-35.56,7.61-66.5,34.5-79.32,68.94c-7.54,20.25-9.65,43.57-23.96,59.65c-18.63,20.92-50.25,21.58-78.06,20.71
			c-27.8-0.87-59.45-0.13-77.99,20.88c-11.61,13.15-15.3,31.86-14.36,49.48c2.48,46.64,34.98,88.35,76.31,109.07
			c41.33,20.73,90,22.59,135.23,13.47c63.37-12.77,123.63-47.86,159.86-102.04C457.66,226.9,466.83,153.08,437.85,94.6z"/>
	</g>
	<g class="st4">
		
			<ellipse transform="matrix(0.1701 -0.9854 0.9854 0.1701 -74.7087 707.4697)" class="st0" cx="382.68" cy="398.09" rx="27.09" ry="27.09"/>
	</g>
</g>
<g id="Floor">
	<g>
		<g>
			<path class="st5" d="M463.14,467.86c0,0.14-95.44,0.26-213.13,0.26c-117.74,0-213.15-0.12-213.15-0.26
				c0-0.14,95.41-0.26,213.15-0.26C367.71,467.6,463.14,467.71,463.14,467.86z"/>
		</g>
	</g>
</g>
<g id="Screen">
	<g>
		<g>
			<rect x="54.68" y="65.6" class="st2" width="390.85" height="25.04"/>
		</g>
		<g>
			<rect x="54.62" y="113.64" class="st1" width="390.85" height="219.2"/>
		</g>
		<g>
			<polygon class="st6" points="54.68,90.46 108.35,90.46 113.66,74.97 200.66,74.97 205.97,90.46 445.53,90.46 445.53,114.17 
				54.68,114.17 			"/>
		</g>
		<g>
			<path class="st5" d="M67.58,75.59c0,1.62-1.32,2.94-2.94,2.94c-1.62,0-2.94-1.32-2.94-2.94c0-1.62,1.32-2.94,2.94-2.94
				C66.27,72.65,67.58,73.96,67.58,75.59z"/>
		</g>
		<g>
			<path class="st5" d="M76.67,75.59c0,1.62-1.32,2.94-2.94,2.94c-1.62,0-2.94-1.32-2.94-2.94c0-1.62,1.32-2.94,2.94-2.94
				C75.36,72.65,76.67,73.96,76.67,75.59z"/>
		</g>
		<g>
			<path class="st5" d="M85.76,75.59c0,1.62-1.32,2.94-2.94,2.94c-1.62,0-2.94-1.32-2.94-2.94c0-1.62,1.32-2.94,2.94-2.94
				C84.45,72.65,85.76,73.96,85.76,75.59z"/>
		</g>
		<g>
			<path class="st7" d="M402.33,109.45H134.18c-4.11,0-7.44-3.33-7.44-7.44l0,0c0-4.11,3.33-7.44,7.44-7.44h268.15
				c4.11,0,7.44,3.33,7.44,7.44l0,0C409.77,106.12,406.44,109.45,402.33,109.45z"/>
		</g>
		<g>
			<path class="st2" d="M140.6,103v2.51h-1.27v-2.32c0-0.71-0.33-1.04-0.89-1.04c-0.61,0-1.05,0.38-1.05,1.18v2.17h-1.27v-6.06h1.27
				v2.12c0.34-0.34,0.83-0.52,1.4-0.52C139.82,101.06,140.6,101.66,140.6,103z"/>
			<path class="st2" d="M144.58,105.3c-0.26,0.19-0.65,0.28-1.04,0.28c-1.04,0-1.64-0.53-1.64-1.58v-1.8h-0.68v-0.98h0.68v-1.07
				h1.27v1.07h1.09v0.98h-1.09v1.79c0,0.38,0.2,0.58,0.55,0.58c0.19,0,0.38-0.06,0.51-0.16L144.58,105.3z"/>
			<path class="st2" d="M148.04,105.3c-0.26,0.19-0.65,0.28-1.04,0.28c-1.04,0-1.64-0.53-1.64-1.58v-1.8h-0.68v-0.98h0.68v-1.07
				h1.27v1.07h1.09v0.98h-1.09v1.79c0,0.38,0.2,0.58,0.55,0.58c0.19,0,0.38-0.06,0.51-0.16L148.04,105.3z"/>
			<path class="st2" d="M153.54,103.32c0,1.38-0.96,2.26-2.19,2.26c-0.55,0-1-0.17-1.32-0.53v2.05h-1.27v-5.98h1.22v0.51
				c0.32-0.38,0.79-0.57,1.38-0.57C152.59,101.06,153.54,101.94,153.54,103.32z M152.25,103.32c0-0.76-0.48-1.22-1.12-1.22
				s-1.12,0.46-1.12,1.22c0,0.76,0.48,1.22,1.12,1.22S152.25,104.08,152.25,103.32z"/>
			<path class="st2" d="M154.08,101.85c0-0.47,0.35-0.78,0.79-0.78c0.44,0,0.79,0.31,0.79,0.78c0,0.47-0.35,0.8-0.79,0.8
				C154.43,102.65,154.08,102.31,154.08,101.85z M154.08,104.78c0-0.47,0.35-0.78,0.79-0.78c0.44,0,0.79,0.31,0.79,0.78
				c0,0.47-0.35,0.8-0.79,0.8C154.43,105.58,154.08,105.25,154.08,104.78z"/>
			<path class="st2" d="M158.8,98.64h1.13l-2.69,7.69h-1.13L158.8,98.64z"/>
			<path class="st2" d="M161.41,98.64h1.13l-2.69,7.69h-1.13L161.41,98.64z"/>
		</g>
		<g>
			<g>
				<path class="st7" d="M402.09,153.06H168.46c-7.29,0-13.19-5.91-13.19-13.19l0,0c0-7.28,5.91-13.19,13.19-13.19h233.63
					c7.29,0,13.19,5.91,13.19,13.19l0,0C415.28,147.16,409.37,153.06,402.09,153.06z"/>
			</g>
			<g>
				<g>
					<path class="st5" d="M402.09,153.06c-0.03-0.11,2.02,0.24,5.4-1.22c1.64-0.77,3.6-2.04,5.16-4.22
						c0.78-1.08,1.48-2.35,1.94-3.81c0.45-1.46,0.67-3.11,0.55-4.83c-0.12-1.72-0.59-3.52-1.48-5.21c-0.89-1.7-2.24-3.25-3.93-4.49
						c-1.69-1.25-3.79-2.07-6.04-2.36c-1.13-0.13-2.3-0.1-3.49-0.1c-1.19,0-2.41,0-3.64,0.01c-9.89,0.01-21.14,0.02-33.59,0.04
						c-49.78,0.02-118.54,0.05-194.48,0.08c-2.32,0.04-4.65,0.61-6.63,1.83c-2,1.17-3.62,2.92-4.75,4.92
						c-2.21,4.04-2.07,9.24,0.42,13.06c1.19,1.93,2.93,3.49,4.9,4.56c2,1.04,4.23,1.56,6.49,1.5c4.55,0,9.07,0,13.55,0
						c17.91,0.01,35.18,0.01,51.64,0.02c32.91,0.02,62.54,0.04,87.43,0.06c24.88,0.03,45.02,0.06,58.94,0.08
						c6.95,0.02,12.35,0.04,16.03,0.05c1.83,0.01,3.22,0.02,4.17,0.03C401.61,153.04,402.09,153.06,402.09,153.06
						s-0.48,0.02-1.42,0.03c-0.95,0.01-2.34,0.01-4.17,0.03c-3.67,0.01-9.07,0.03-16.03,0.05c-13.93,0.02-34.06,0.05-58.94,0.08
						c-24.89,0.02-54.52,0.03-87.43,0.06c-16.46,0-33.73,0.01-51.64,0.02c-4.48,0-8.99,0-13.55,0c-2.31,0.07-4.66-0.48-6.73-1.56
						c-2.05-1.11-3.87-2.73-5.1-4.74c-2.59-3.97-2.74-9.37-0.44-13.58c1.17-2.08,2.86-3.9,4.94-5.11c2.05-1.27,4.48-1.87,6.89-1.91
						c75.94,0.03,144.7,0.06,194.48,0.08c12.44,0.01,23.7,0.03,33.59,0.04c1.24,0,2.45,0,3.64,0.01c1.19,0,2.37-0.02,3.52,0.11
						c2.3,0.3,4.44,1.14,6.15,2.42c1.72,1.26,3.09,2.85,3.99,4.58c0.9,1.73,1.37,3.56,1.49,5.31c0.12,1.75-0.11,3.42-0.58,4.9
						c-0.47,1.48-1.19,2.77-1.98,3.85c-1.59,2.19-3.59,3.46-5.24,4.22c-1.69,0.75-3.09,0.95-4.02,1.07
						C402.57,153.06,402.09,153.06,402.09,153.06z"/>
				</g>
			</g>
		</g>
		<g>
			<path class="st2" d="M173.82,142.68l0.5-1.11c0.53,0.39,1.33,0.66,2.09,0.66c0.87,0,1.22-0.29,1.22-0.68
				c0-1.19-3.69-0.37-3.69-2.73c0-1.08,0.87-1.98,2.67-1.98c0.8,0,1.61,0.19,2.2,0.56l-0.45,1.12c-0.59-0.34-1.2-0.5-1.76-0.5
				c-0.87,0-1.21,0.33-1.21,0.73c0,1.17,3.69,0.36,3.69,2.69c0,1.06-0.88,1.97-2.69,1.97C175.39,143.42,174.38,143.12,173.82,142.68
				z"/>
			<path class="st2" d="M184.75,141.27h-3.69c0.14,0.61,0.65,0.98,1.4,0.98c0.52,0,0.89-0.15,1.22-0.47l0.75,0.82
				c-0.45,0.52-1.13,0.79-2.01,0.79c-1.69,0-2.78-1.06-2.78-2.51c0-1.46,1.11-2.51,2.6-2.51c1.43,0,2.54,0.96,2.54,2.53
				C184.78,141,184.76,141.15,184.75,141.27z M181.04,140.44h2.4c-0.1-0.62-0.56-1.02-1.2-1.02
				C181.6,139.43,181.14,139.82,181.04,140.44z"/>
			<path class="st2" d="M189.9,140.52v2.78h-1.32v-0.61c-0.26,0.44-0.77,0.68-1.49,0.68c-1.14,0-1.82-0.63-1.82-1.48
				c0-0.86,0.61-1.46,2.09-1.46h1.12c0-0.61-0.36-0.96-1.12-0.96c-0.52,0-1.05,0.17-1.4,0.45l-0.51-0.99
				c0.53-0.38,1.32-0.59,2.1-0.59C189.04,138.36,189.9,139.05,189.9,140.52z M188.49,141.77v-0.5h-0.97c-0.66,0-0.87,0.25-0.87,0.57
				c0,0.35,0.3,0.59,0.8,0.59C187.92,142.43,188.32,142.21,188.49,141.77z"/>
			<path class="st2" d="M194.21,138.36v1.31c-0.12-0.01-0.21-0.02-0.32-0.02c-0.78,0-1.3,0.43-1.3,1.36v2.3h-1.41v-4.88h1.35v0.64
				C192.88,138.6,193.46,138.36,194.21,138.36z"/>
			<path class="st2" d="M194.65,140.87c0-1.47,1.13-2.51,2.72-2.51c1.02,0,1.83,0.44,2.18,1.24l-1.1,0.59
				c-0.26-0.46-0.65-0.67-1.1-0.67c-0.72,0-1.28,0.5-1.28,1.35c0,0.85,0.56,1.35,1.28,1.35c0.44,0,0.83-0.2,1.1-0.67l1.1,0.6
				c-0.35,0.78-1.16,1.23-2.18,1.23C195.78,143.38,194.65,142.34,194.65,140.87z"/>
			<path class="st2" d="M205.32,140.51v2.79h-1.41v-2.57c0-0.79-0.36-1.15-0.99-1.15c-0.68,0-1.17,0.42-1.17,1.31v2.41h-1.41v-6.73
				h1.41v2.36c0.38-0.38,0.92-0.58,1.55-0.58C204.45,138.36,205.32,139.03,205.32,140.51z"/>
			<path class="st2" d="M208.82,142.49c0-0.53,0.39-0.87,0.88-0.87c0.49,0,0.88,0.34,0.88,0.87c0,0.52-0.39,0.89-0.88,0.89
				C209.21,143.38,208.82,143.01,208.82,142.49z"/>
			<path class="st2" d="M211.2,142.49c0-0.53,0.39-0.87,0.88-0.87c0.49,0,0.88,0.34,0.88,0.87c0,0.52-0.39,0.89-0.88,0.89
				C211.59,143.38,211.2,143.01,211.2,142.49z"/>
			<path class="st2" d="M213.57,142.49c0-0.53,0.39-0.87,0.88-0.87c0.49,0,0.88,0.34,0.88,0.87c0,0.52-0.39,0.89-0.88,0.89
				C213.96,143.38,213.57,143.01,213.57,142.49z"/>
		</g>
		<g>
			<g>
				<path d="M128.07,176.02c0,0.14-9.38,0.26-20.94,0.26c-11.57,0-20.94-0.12-20.94-0.26c0-0.14,9.37-0.26,20.94-0.26
					C118.69,175.76,128.07,175.88,128.07,176.02z"/>
			</g>
		</g>
		<g>
			<rect x="86.19" y="187.99" class="st8" width="43.52" height="43.52"/>
		</g>
		<g>
			<g>
				<path d="M394.15,198.25c0,0.14-54.02,0.26-120.64,0.26c-66.65,0-120.65-0.12-120.65-0.26s54.01-0.26,120.65-0.26
					C340.13,197.99,394.15,198.1,394.15,198.25z"/>
			</g>
		</g>
		<g>
			<g>
				<path d="M218.86,214.63c0,0.14-14.23,0.26-31.79,0.26c-17.56,0-31.79-0.12-31.79-0.26c0-0.14,14.23-0.26,31.79-0.26
					C204.62,214.37,218.86,214.49,218.86,214.63z"/>
			</g>
		</g>
		<g>
			<g>
				<path class="st2" d="M355.59,229.83c0,0.14-44.85,0.26-100.15,0.26c-55.33,0-100.16-0.12-100.16-0.26s44.84-0.26,100.16-0.26
					C310.74,229.56,355.59,229.68,355.59,229.83z"/>
			</g>
		</g>
		<g>
			<g>
				<path d="M128.07,253.97c0,0.14-9.38,0.26-20.94,0.26c-11.57,0-20.94-0.12-20.94-0.26c0-0.14,9.37-0.26,20.94-0.26
					C118.69,253.71,128.07,253.83,128.07,253.97z"/>
			</g>
		</g>
		<g>
			<rect x="86.19" y="265.94" class="st8" width="43.52" height="43.52"/>
		</g>
		<g>
			<g>
				<path d="M408.49,276.19c0,0.14-57.23,0.26-127.81,0.26c-70.6,0-127.82-0.12-127.82-0.26s57.22-0.26,127.82-0.26
					C351.26,275.93,408.49,276.05,408.49,276.19z"/>
			</g>
		</g>
		<g>
			<g>
				<path d="M218.86,292.58c0,0.14-14.23,0.26-31.79,0.26c-17.56,0-31.79-0.12-31.79-0.26c0-0.14,14.23-0.26,31.79-0.26
					C204.62,292.32,218.86,292.44,218.86,292.58z"/>
			</g>
		</g>
		<g>
			<g>
				<path class="st2" d="M390.47,307.77c0,0.14-52.66,0.26-117.59,0.26c-64.96,0-117.61-0.12-117.61-0.26
					c0-0.14,52.64-0.26,117.61-0.26C337.82,307.51,390.47,307.63,390.47,307.77z"/>
			</g>
		</g>
		<g>
			<g>
				<path class="st5" d="M445.53,333.37c0-1.71-0.08-104.79-0.21-267.76l0.21,0.21c-108.19,0.01-243.89,0.03-390.82,0.05h-0.03
					l0.26-0.26c-0.01,95.57-0.02,186.39-0.02,267.76l-0.24-0.24C285.23,333.27,443.41,333.36,445.53,333.37
					c-2.12,0-160.3,0.1-390.85,0.24l-0.24,0v-0.24c-0.01-81.38-0.01-172.19-0.02-267.76v-0.26h0.26h0.03
					c146.93,0.02,282.63,0.04,390.82,0.05h0.21l0,0.21C445.62,228.57,445.53,331.65,445.53,333.37z"/>
			</g>
		</g>
		<g>
			<g>
				<path d="M190.1,85c0,0.14-13.8,0.26-30.82,0.26c-17.03,0-30.82-0.12-30.82-0.26s13.8-0.26,30.82-0.26
					C176.3,84.74,190.1,84.86,190.1,85z"/>
			</g>
		</g>
		<g>
			<rect x="79.76" y="134.22" class="st9" width="54.74" height="16.49"/>
		</g>
		<g>
			<g>
				<path class="st8" d="M231.43,177.41c0,0.14-17.02,0.26-38.01,0.26c-21,0-38.02-0.12-38.02-0.26s17.02-0.26,38.02-0.26
					C214.41,177.15,231.43,177.27,231.43,177.41z"/>
			</g>
		</g>
		<g>
			<g>
				<path class="st8" d="M231.43,253.97c0,0.14-17.02,0.26-38.01,0.26c-21,0-38.02-0.12-38.02-0.26c0-0.14,17.02-0.26,38.02-0.26
					C214.41,253.71,231.43,253.83,231.43,253.97z"/>
			</g>
		</g>
		<g>
			<g>
				<path class="st8" d="M397.06,144.26c-3.5,0-6.35-2.85-6.35-6.35c0-3.5,2.85-6.35,6.35-6.35s6.35,2.85,6.35,6.35
					C403.41,141.41,400.56,144.26,397.06,144.26z M397.06,132.55c-2.95,0-5.35,2.4-5.35,5.35c0,2.95,2.4,5.35,5.35,5.35
					c2.95,0,5.35-2.4,5.35-5.35C402.41,134.95,400.01,132.55,397.06,132.55z"/>
			</g>
			<g>
				<path class="st8" d="M404.87,147.08c-0.13,0-0.25-0.05-0.35-0.14l-4.14-4.11c-0.2-0.19-0.2-0.51,0-0.71
					c0.19-0.19,0.51-0.2,0.71,0l4.14,4.11c0.2,0.19,0.2,0.51,0,0.71C405.12,147.03,404.99,147.08,404.87,147.08z"/>
			</g>
		</g>
		<g>
			<g>
				<path d="M299.88,213.51c0,0.14-16.38,0.26-36.57,0.26c-20.2,0-36.58-0.12-36.58-0.26s16.37-0.26,36.58-0.26
					C283.51,213.25,299.88,213.36,299.88,213.51z"/>
			</g>
		</g>
		<g>
			<g>
				<path d="M347.15,212.38c0,0.14-8.57,0.26-19.13,0.26c-10.57,0-19.13-0.12-19.13-0.26s8.56-0.26,19.13-0.26
					C338.58,212.12,347.15,212.24,347.15,212.38z"/>
			</g>
		</g>
		<g>
			<g>
				<path d="M299.53,292.58c0,0.14-16.38,0.26-36.57,0.26c-20.2,0-36.58-0.12-36.58-0.26c0-0.14,16.37-0.26,36.58-0.26
					C283.16,292.32,299.53,292.44,299.53,292.58z"/>
			</g>
		</g>
	</g>
</g>
<g id="Plant">
	<g>
		<g>
			<path class="st9" d="M103.22,313.16c-8.11,4.2-14.33,11.44-18.81,19.41c-4.47,7.97-7.36,16.71-10.21,25.39l-2.5,44.76
				c9.44-16.06,17.02-34.94,19.06-53.46c-2.09-0.19-4.19-0.37-6.28-0.56c4.21-0.64,7.75-3.69,10-7.31c2.25-3.62,3.41-7.79,4.54-11.9
				c-2.55,0.38-5.11,0.76-7.66,1.14C97.35,326.62,101.7,320.22,103.22,313.16z"/>
		</g>
		<g class="st10">
			<g>
				<path d="M103.22,313.16c-8.11,4.2-14.33,11.44-18.81,19.41c-4.47,7.97-7.36,16.71-10.21,25.39l-2.5,44.76
					c9.44-16.06,17.02-34.94,19.06-53.46c-2.09-0.19-4.19-0.37-6.28-0.56c4.21-0.64,7.75-3.69,10-7.31
					c2.25-3.62,3.41-7.79,4.54-11.9c-2.55,0.38-5.11,0.76-7.66,1.14C97.35,326.62,101.7,320.22,103.22,313.16z"/>
			</g>
		</g>
		<g>
			<path class="st9" d="M70.3,413.2c0,0-20.49-24.53-20.25-47.94h8.28c0,0-8.99-5.91-8.28-9.22c0.71-3.31,0.95-15.84,0.95-15.84
				l7.57,1.89c0,0-5.68-2.84-6.39-7.33c-0.71-4.49,1.66-25.3,1.66-25.3s9.22,9.7,12.06,19.63c2.84,9.93,10.29,21.52,8.1,51.79
				C71.8,411.14,70.3,413.2,70.3,413.2z"/>
		</g>
		<g>
			<path class="st9" d="M80.69,415.52c0,0,22.2-14.79,27.13-33.66l-6.65-1.81c0,0,8.52-2.79,8.67-5.6s2.7-12.95,2.7-12.95l-6.5-0.13
				c0,0,5.18-1.04,6.74-4.5c1.55-3.46,4.21-20.71,4.21-20.71s-9.54,5.78-13.99,13.14c-4.45,7.36-12.98,15.05-17.84,39.87
				C80.29,413.98,80.69,415.52,80.69,415.52z"/>
		</g>
		<g>
			<g>
				<path class="st5" d="M59.43,330.84c0.01,0,0.04,0.08,0.08,0.25c0.05,0.2,0.11,0.45,0.19,0.75c0.16,0.7,0.38,1.68,0.66,2.91
					c0.57,2.53,1.33,6.2,2.2,10.75c1.75,9.1,3.81,21.73,5.44,35.77c1.62,14.05,2.49,26.82,2.86,36.08
					c0.19,4.63,0.29,8.37,0.31,10.96c0.01,1.26,0.01,2.26,0.02,2.98c0,0.32-0.01,0.57-0.01,0.78c0,0.17-0.01,0.26-0.02,0.26
					c-0.01,0-0.02-0.09-0.03-0.26c-0.01-0.2-0.03-0.46-0.04-0.77c-0.03-0.72-0.07-1.72-0.12-2.98c-0.08-2.59-0.24-6.33-0.48-10.95
					c-0.47-9.24-1.4-22-3.01-36.04c-1.63-14.03-3.63-26.66-5.29-35.77c-0.82-4.55-1.52-8.23-2.04-10.77
					c-0.24-1.24-0.43-2.22-0.57-2.93c-0.05-0.31-0.1-0.56-0.13-0.76C59.43,330.93,59.42,330.84,59.43,330.84z"/>
			</g>
		</g>
		<g>
			<path class="st9" d="M67.46,428.22c0,0-18.75-21.28-24.57-34.14l4.4-1.88c-3.19,0.53-6.45-0.84-8.92-2.92
				c-2.47-2.08-4.28-4.81-6.06-7.51l5.79-0.98c-5.27-1.48-9.9-5.07-12.65-9.8c6.83,1.12,13.01,4.88,18.11,9.57
				c4.13,3.8,7.62,8.21,10.97,12.71c1.64,2.2,3.07,4.54,4.26,7.01C61.93,406.8,67.47,420.41,67.46,428.22z"/>
		</g>
		<g>
			<g>
				<path class="st5" d="M108.11,348.54c0.01,0-0.02,0.08-0.08,0.22c-0.08,0.17-0.17,0.37-0.28,0.62c-0.28,0.58-0.65,1.37-1.13,2.37
					c-1,2.05-2.42,5.02-4.13,8.71c-3.44,7.38-7.98,17.67-12.46,29.25c-4.47,11.59-8.04,22.26-10.46,30.03
					c-1.21,3.89-2.16,7.04-2.8,9.22c-0.32,1.06-0.57,1.89-0.76,2.51c-0.08,0.26-0.15,0.47-0.21,0.65c-0.05,0.15-0.08,0.22-0.09,0.22
					c-0.01,0,0-0.08,0.04-0.23c0.04-0.18,0.1-0.4,0.16-0.66c0.16-0.62,0.38-1.47,0.66-2.54c0.58-2.2,1.48-5.37,2.64-9.28
					c2.33-7.81,5.85-18.51,10.33-30.11c4.49-11.59,9.08-21.88,12.61-29.22c1.76-3.67,3.23-6.62,4.28-8.64
					c0.51-0.98,0.92-1.75,1.22-2.32c0.13-0.24,0.24-0.44,0.33-0.6C108.06,348.6,108.11,348.54,108.11,348.54z"/>
			</g>
		</g>
		<g>
			<g>
				<path class="st5" d="M69.05,437.34c-0.04,0-0.14-0.54-0.3-1.52c-0.15-0.98-0.4-2.4-0.75-4.13c-0.69-3.48-1.9-8.23-3.81-13.29
					c-1.92-5.06-4.15-9.43-5.93-12.49c-0.89-1.53-1.63-2.76-2.17-3.6c-0.53-0.84-0.81-1.32-0.78-1.34c0.03-0.02,0.36,0.42,0.95,1.22
					c0.59,0.8,1.38,2,2.32,3.52c1.87,3.03,4.17,7.41,6.1,12.5c1.92,5.09,3.08,9.9,3.68,13.41c0.3,1.75,0.5,3.18,0.59,4.17
					C69.05,436.79,69.08,437.33,69.05,437.34z"/>
			</g>
		</g>
		<g>
			<rect x="52.75" y="432.33" class="st8" width="41.04" height="8.37"/>
		</g>
		<g>
			<polygon class="st8" points="56.66,440.71 61.1,468.86 85.9,468.86 90.04,440.71 			"/>
		</g>
		<g>
			<g>
				<path class="st5" d="M91.27,440.71c0,0.14-7.76,0.26-17.34,0.26c-9.58,0-17.34-0.12-17.34-0.26c0-0.14,7.76-0.26,17.34-0.26
					C83.51,440.45,91.27,440.56,91.27,440.71z"/>
			</g>
		</g>
	</g>
</g>
<g id="Character">
	<g>
		<g>
			<g>
				<g>
					<g>
						<g>
							<g>
								<g>
									<g>
										<g>
											<g>
												<g>
													<g>
														<g>
															<path class="st9" d="M270.02,448.09v20.77l41.88-0.2c-0.3-4.21-23.29-12.61-23.29-12.61l0.46-7.95H270.02z"/>
														</g>
													</g>
												</g>
											</g>
										</g>
									</g>
								</g>
							</g>
						</g>
					</g>
					<g class="st11">
						<g>
							<g>
								<g>
									<g>
										<g>
											<g>
												<g>
													<g>
														<g>
															<g>
																<path class="st1" d="M276.79,454.16c-0.8,0.25-1.35,1.21-1.15,2.07c0.2,0.86,1.13,1.45,1.93,1.22
																	c0.81-0.23,1.49-1.37,1.2-2.2c-0.29-0.83-1.41-1.47-2.14-1.04"/>
															</g>
														</g>
													</g>
												</g>
											</g>
										</g>
									</g>
								</g>
							</g>
						</g>
					</g>
					<g>
						<g>
							<g>
								<g>
									<g>
										<g>
											<g>
												<g>
													<g>
														<g>
															<path class="st5" d="M270.02,468.85v-3.32l39.99,0.47c0,0,2.08,1.25,1.9,2.64L270.02,468.85z"/>
														</g>
													</g>
												</g>
											</g>
										</g>
									</g>
								</g>
							</g>
						</g>
					</g>
					<g>
						<g>
							<g>
								<g>
									<g>
										<g>
											<g>
												<g>
													<g>
														<g>
															<g>
																<path class="st5" d="M288.61,456.44c0,0.22-1.02,0.33-2.01,1.04c-1.01,0.68-1.51,1.62-1.7,1.54
																	c-0.19-0.04,0.1-1.33,1.31-2.17C287.42,456,288.65,456.24,288.61,456.44z"/>
															</g>
														</g>
													</g>
												</g>
											</g>
										</g>
									</g>
								</g>
							</g>
						</g>
					</g>
					<g>
						<g>
							<g>
								<g>
									<g>
										<g>
											<g>
												<g>
													<g>
														<g>
															<g>
																<path class="st5" d="M294.1,458.36c0.05,0.21-0.83,0.59-1.5,1.51c-0.7,0.9-0.86,1.89-1.07,1.88
																	c-0.19,0.04-0.35-1.22,0.51-2.35C292.89,458.26,294.09,458.16,294.1,458.36z"/>
															</g>
														</g>
													</g>
												</g>
											</g>
										</g>
									</g>
								</g>
							</g>
						</g>
					</g>
					<g>
						<g>
							<g>
								<g>
									<g>
										<g>
											<g>
												<g>
													<g>
														<g>
															<g>
																<path class="st5" d="M296.57,463.65c-0.18,0.05-0.48-1.02,0.02-2.21c0.5-1.19,1.45-1.67,1.54-1.49
																	c0.12,0.18-0.49,0.82-0.89,1.8C296.81,462.72,296.77,463.63,296.57,463.65z"/>
															</g>
														</g>
													</g>
												</g>
											</g>
										</g>
									</g>
								</g>
							</g>
						</g>
					</g>
					<g>
						<g>
							<g>
								<g>
									<g>
										<g>
											<g>
												<g>
													<g>
														<g>
															<g>
																<path class="st5" d="M288.2,450.53c-0.08,0.2-1.02-0.09-2.17,0.01c-1.15,0.08-2.04,0.5-2.15,0.31
																	c-0.12-0.15,0.74-0.97,2.1-1.06C287.34,449.69,288.3,450.36,288.2,450.53z"/>
															</g>
														</g>
													</g>
												</g>
											</g>
										</g>
									</g>
								</g>
							</g>
						</g>
					</g>
				</g>
			</g>
		</g>
		<g>
			<g>
				<g>
					<g>
						<path class="st5" d="M288.44,457.37c0.03,0,0.14-0.44,0.09-1.27c-0.06-0.81-0.31-2.03-1.11-3.27
							c-0.4-0.61-0.93-1.22-1.64-1.72c-0.34-0.24-0.87-0.5-1.41-0.25c-0.51,0.24-0.8,0.81-0.82,1.37c0.05,2.14,1.59,4.11,3.68,4.86
							c2.15,0.75,4.41-0.18,5.66-1.68c0.3-0.38,0.6-0.77,0.75-1.28c0.07-0.25,0.11-0.54,0.01-0.83c-0.09-0.28-0.32-0.51-0.57-0.6
							c-0.51-0.17-0.93-0.02-1.31,0.13c-0.36,0.17-0.68,0.36-0.97,0.56c-1.19,0.79-1.95,1.71-2.39,2.37
							c-0.45,0.67-0.61,1.1-0.58,1.11c0.09,0.1,0.87-1.64,3.19-3.1c0.56-0.32,1.29-0.78,1.89-0.58c0.26,0.11,0.36,0.41,0.24,0.78
							c-0.11,0.36-0.38,0.72-0.66,1.06c-1.13,1.33-3.18,2.14-5.06,1.47c-1.86-0.63-3.26-2.51-3.32-4.22c0.01-0.4,0.21-0.76,0.49-0.9
							c0.27-0.14,0.62-0.02,0.93,0.18c0.64,0.43,1.16,0.99,1.56,1.54c0.79,1.13,1.09,2.27,1.22,3.04
							C288.41,456.92,288.39,457.37,288.44,457.37z"/>
					</g>
				</g>
			</g>
		</g>
		<g>
			<g>
				<g>
					<g>
						<g>
							<g>
								<g>
									<polygon class="st9" points="254.71,451.09 255.42,456.44 254.95,468.49 239.25,468.87 238.69,456.44 240.47,449.05 
																			"/>
								</g>
							</g>
						</g>
					</g>
				</g>
			</g>
		</g>
		<g>
			<g>
				<g>
					<g>
						<g>
							<g>
								<g>
									<g>
										<path class="st5" d="M247.19,467.58c-0.1,0,0.13-3.68,0.5-8.23c0.37-4.55,0.76-8.25,0.85-8.25c0.1,0-0.13,3.68-0.5,8.24
											C247.66,463.88,247.28,467.58,247.19,467.58z"/>
									</g>
								</g>
							</g>
						</g>
					</g>
				</g>
			</g>
		</g>
		<g>
			<g>
				<g>
					<g>
						<g>
							<g>
								<g>
									<polygon class="st5" points="255.01,466.48 239.15,466.67 239.15,468.87 255.02,468.85 									"/>
								</g>
							</g>
						</g>
					</g>
				</g>
			</g>
		</g>
		<g>
			<g>
				<g>
					<g>
						<g>
							<g>
								<g>
									<g>
										<path class="st5" d="M239.19,459.55c-0.02-0.02,0.11-0.25,0.4-0.64c0.29-0.39,0.75-0.92,1.4-1.5
											c0.65-0.58,1.49-1.21,2.54-1.7c1.04-0.5,2.31-0.86,3.66-0.85c2.72,0,5,1.33,6.12,2.66c0.58,0.65,0.94,1.27,1.15,1.71
											c0.2,0.44,0.28,0.7,0.25,0.71c-0.09,0.05-0.46-0.98-1.64-2.19c-1.14-1.21-3.31-2.41-5.89-2.41
											c-2.57-0.01-4.69,1.28-5.97,2.33C239.89,458.75,239.25,459.61,239.19,459.55z"/>
									</g>
								</g>
							</g>
						</g>
					</g>
				</g>
			</g>
		</g>
		<g>
			<g>
				<g>
					<g>
						<g>
							<g>
								<g>
									<path class="st12" d="M247.12,114.74l-0.17,54.29l23.29,1.11l0.67-13.2c0,0,8.27,1.64,10.41-6.04
										c1.36-4.91,1.02-42.83,1.02-42.83L247.12,114.74z"/>
								</g>
							</g>
						</g>
					</g>
				</g>
			</g>
			<g>
				<g>
					<g>
						<g>
							<g>
								<g>
									<path class="st5" d="M285.41,111.88c-3.67,1.05-4.47,7.05-4.47,7.05l-5.75,12.71c-2.93-2.29-6.87-2.16-7.61,2.99
										c-0.54,3.72,4.09,4.47,4.09,4.47c-2.69,4.58-4.52,8.29-8.44,12.65c-4.25,4.72-6.62,5.2-11.23,5.27h-5.08
										c0,0-2.49-8.07-7.09-28.24c-5.11-22.38,21.36-19.5,26.27-25.21C274.09,94.26,296.97,108.57,285.41,111.88z"/>
								</g>
							</g>
						</g>
					</g>
				</g>
			</g>
			<g>
				<path class="st5" d="M291.87,107.01c-0.38-2.38-2.66-4.38-5.07-4.22c0.86-1.21,0.45-3.03-0.66-4.02
					c-1.11-0.99-2.72-1.25-4.19-1.02c-1.47,0.22-2.84,0.87-4.18,1.5c-0.24-1.14-1.68-3.02-2.7-3.57c-2.05-1.11-3.33-1.11-4.49-1.11
					c-7.15,0-10.91,4.9-14.75,9.88c-0.66,0.86-1.31,1.81-2.32,2.2c-0.68,0.26-1.43,0.23-2.16,0.24c-5.44,0.11-10.71,3.38-13.21,8.22
					c-2.5,4.84-4.37,16.03,2.1,22.96l3.9,8.71l37.33-29.58c0.27,0.14,2.61,1.28,4.41,0.33c4.47-2.35,2.6-6.28,2.6-6.28
					C288.84,111.07,292.25,109.4,291.87,107.01z"/>
			</g>
			<g>
				<g>
					<g>
						<g>
							<path class="st9" d="M257.32,136.11c0.15-0.02,0.38,1.87-0.13,4.12c-0.5,2.26-1.52,3.86-1.65,3.78
								c-0.16-0.08,0.59-1.74,1.07-3.91C257.11,137.93,257.15,136.11,257.32,136.11z"/>
						</g>
					</g>
				</g>
			</g>
			<g>
				<g>
					<g>
						<g>
							<path class="st9" d="M260.14,133.44c0.16,0.01,0.19,1.8-0.22,3.97c-0.4,2.17-1.08,3.83-1.23,3.78
								c-0.16-0.05,0.26-1.76,0.65-3.89C259.74,135.18,259.97,133.43,260.14,133.44z"/>
						</g>
					</g>
				</g>
			</g>
			<g>
				<g>
					<g>
						<g>
							<path class="st9" d="M268.2,124.48c0.06,0.08-0.6,0.56-1.44,1.54c-0.84,0.97-1.81,2.49-2.51,4.33
								c-0.7,1.84-1.09,3.61-1.39,4.88c-0.29,1.28-0.49,2.07-0.58,2.05c-0.08-0.01-0.02-0.83,0.17-2.13c0.2-1.3,0.52-3.11,1.25-5.02
								c0.73-1.91,1.8-3.47,2.75-4.4C267.41,124.79,268.17,124.43,268.2,124.48z"/>
						</g>
					</g>
				</g>
			</g>
			<g>
				<g>
					<g>
						<g>
							<path class="st9" d="M271.46,118.39c0.07-0.02,0.31,0.53,0.45,1.47c0.15,0.94,0.15,2.28-0.2,3.71
								c-0.36,1.42-1,2.61-1.57,3.36c-0.57,0.76-1.04,1.13-1.09,1.08c-0.15-0.11,1.43-1.86,2.09-4.59
								C271.85,120.7,271.28,118.41,271.46,118.39z"/>
						</g>
					</g>
				</g>
			</g>
			<g>
				<g>
					<g>
						<g>
							<path class="st9" d="M243.67,131.94c-0.08,0.14-0.79-0.1-1.59-0.55c-0.8-0.45-1.38-0.92-1.3-1.07
								c0.08-0.14,0.79,0.1,1.59,0.55C243.16,131.32,243.75,131.8,243.67,131.94z"/>
						</g>
					</g>
				</g>
			</g>
			<g>
				<g>
					<g>
						<g>
							<path class="st9" d="M254.92,126.15c0.15,0.02,0.06,1.17-0.67,2.36c-0.72,1.19-1.69,1.81-1.78,1.69
								c-0.11-0.13,0.62-0.9,1.28-1.99C254.42,127.11,254.75,126.11,254.92,126.15z"/>
						</g>
					</g>
				</g>
			</g>
			<g>
				<g>
					<g>
						<g>
							<path class="st9" d="M258.38,124.29c0.15,0.03-0.09,1.41-1.04,2.82c-0.93,1.42-2.11,2.18-2.2,2.05
								c-0.11-0.13,0.83-1.05,1.71-2.38C257.74,125.46,258.22,124.24,258.38,124.29z"/>
						</g>
					</g>
				</g>
			</g>
			<g>
				<g>
					<g>
						<g>
							<path class="st9" d="M275.58,101.55c-0.04,0.05-0.44-0.33-1.28-0.81c-0.84-0.46-2.18-0.97-3.9-1.01
								c-1.7-0.05-3.8,0.35-5.73,1.54c-1.93,1.18-3.64,3.11-4.88,5.43c-0.9,1.69-1.53,3.44-1.98,5.09l-0.09,0.34l-0.31-0.16
								c-1.73-0.91-3.56-1.31-5.2-1.33c-1.64-0.05-3.09,0.26-4.23,0.64c-2.3,0.79-3.39,1.82-3.45,1.73
								c-0.02-0.02,0.24-0.28,0.78-0.69c0.54-0.4,1.39-0.93,2.55-1.37c1.16-0.44,2.65-0.8,4.36-0.79c1.7-0.01,3.62,0.37,5.46,1.31
								l-0.41,0.18c0.44-1.69,1.07-3.49,2.01-5.23c1.28-2.39,3.07-4.4,5.11-5.62c2.05-1.22,4.25-1.6,6.02-1.49
								c1.79,0.1,3.17,0.69,4,1.23c0.41,0.29,0.72,0.52,0.89,0.71C275.5,101.44,275.59,101.54,275.58,101.55z"/>
						</g>
					</g>
				</g>
			</g>
			<g>
				<g>
					<g>
						<g>
							<path class="st9" d="M287.83,104.51c-0.04-0.01,0.65-0.17,1.34,0.61c0.31,0.38,0.6,0.97,0.54,1.7
								c-0.07,0.73-0.58,1.48-1.35,1.93c-0.77,0.47-1.82,0.63-2.83,0.39c-1.02-0.22-2-0.76-2.92-1.42c-0.93-0.65-1.82-1.4-2.85-1.96
								c-1.04-0.56-2.21-0.97-3.44-1.21c-2.48-0.46-4.94-0.18-7.02,0.48c-2.09,0.67-3.83,1.68-5.19,2.64
								c-2.72,1.96-4.06,3.59-4.14,3.51c-0.03-0.02,0.28-0.45,0.92-1.15c0.64-0.69,1.62-1.67,2.98-2.7c1.36-1.02,3.11-2.1,5.27-2.82
								c2.15-0.72,4.7-1.03,7.3-0.54c1.29,0.25,2.52,0.68,3.61,1.28c1.1,0.6,2,1.38,2.89,2.02c0.88,0.65,1.79,1.16,2.71,1.38
								c0.92,0.23,1.82,0.12,2.51-0.27c0.7-0.37,1.15-1.01,1.23-1.61c0.09-0.61-0.13-1.16-0.39-1.52
								C288.43,104.51,287.79,104.57,287.83,104.51z"/>
						</g>
					</g>
				</g>
			</g>
		</g>
		<g>
			<path class="st12" d="M396.33,146.16c-0.88-0.78-12.74,4.2-12.74,4.2s-8.85,6.94-12.49,11.04l-2.25,1.87l-33.66,26.17
				l-41.4-17.22l-8.98,23.1c0,0,46.48,18.5,53.56,15.33c7.7-3.44,36.35-33.43,36.41-33.53c0,0,0,0,0,0l4.14-3.99
				c0,0,2.19-0.04,3.85-0.14c1.66-0.1,6.52-3.33,6.52-3.33s0.7-1.26,0.94-2.83c0.24-1.57-0.9-2.06-0.9-2.06s0.27-1.02,0.08-2.34
				c-0.19-1.32-1.95-2.85-1.95-2.85s0.7-0.57,1.11-2.09c0.41-1.52-1.56-2.96-1.56-2.96s6.88-4.68,8.55-5.5
				C397.23,148.21,397.21,146.94,396.33,146.16z"/>
		</g>
		<g>
			<g>
				<path class="st5" d="M299.88,382.69c0.14-1.52,0.21-2.69,0.21-3.42l4.67-74.63c0,0-3.93-21.79-5.79-27.58l-16.71-6.47
					L260,279.26c-0.15-1.8-0.24-2.9-0.24-2.9l-32.79,11.33c0,0-0.85,22.37,0,29.18c0.27,2.19,1.13,7.84,2.17,14.5h0
					c0,0,1.06,14.47,1.27,15.28c0.79,2.95,0.98,10.18,0.98,17.42c0,9.2,0.5,20.15,1.07,25.36c0.57,5.21,0.85,62.44,0.85,62.44h24.2
					l3.11-91.17c0.52-9.77,1.3-24.71,1.81-35.52l5.68,33.66c0,1.23,3.46,20.48,3.46,20.48s-1.27,9.03-1.48,18.26
					c-0.4,16.97-2.39,54.28-2.39,54.28h23.69l0,0C291.38,451.87,298.5,397.99,299.88,382.69L299.88,382.69L299.88,382.69z"/>
			</g>
			<g>
				<path class="st9" d="M303.96,300.17c-0.03,0.05-0.89-0.34-2.18-1.16c-1.29-0.82-3-2.08-4.68-3.71c-1.68-1.63-3-3.29-3.86-4.56
					c-0.86-1.26-1.29-2.11-1.23-2.14c0.07-0.04,0.6,0.73,1.53,1.93c0.92,1.2,2.27,2.8,3.93,4.4c1.66,1.6,3.3,2.89,4.53,3.78
					C303.2,299.59,304,300.1,303.96,300.17z"/>
			</g>
			<g>
				<path class="st9" d="M261.72,313.73c-0.03,0.02-0.19-0.25-0.46-0.74c-0.27-0.49-0.63-1.23-1.02-2.15
					c-0.79-1.85-1.67-4.51-2.2-7.55c-0.53-3.04-0.6-5.84-0.48-7.85c0.06-1.01,0.14-1.82,0.23-2.37c0.09-0.56,0.15-0.86,0.18-0.86
					c0.08,0.01-0.03,1.24-0.05,3.24c-0.02,1.99,0.1,4.75,0.62,7.75c0.53,2.99,1.34,5.63,2.04,7.5
					C261.27,312.57,261.79,313.69,261.72,313.73z"/>
			</g>
			<g>
				<g>
					<path class="st9" d="M265.24,341.83c-0.04,0.01-0.15-0.46-0.31-1.3c-0.17-0.95-0.39-2.15-0.66-3.57
						c-0.53-3.13-1.22-7.25-1.99-11.81c-1.34-8.37-2.25-14.07-2.67-16.72c0.11-0.04,0.58,1.83,1.14,4.83
						c0.58,3.01,1.3,7.19,2.06,11.8c0.75,4.62,1.4,8.8,1.83,11.84c0.19,1.44,0.36,2.64,0.49,3.6
						C265.24,341.35,265.28,341.82,265.24,341.83z"/>
				</g>
			</g>
		</g>
		<g>
			<g>
				<path class="st12" d="M208.13,217.35c0,0-3.2,22.49-3.79,30.38c-0.36,4.74,4.46,11.04,8.14,11.51c3.74,0.47,16.08,1.2,16.08,1.2
					l1.03-14.11l-0.32-2.81l-3.85-0.73l1.16-22.37L208.13,217.35z"/>
			</g>
			<g>
				<g>
					<path class="st13" d="M226.07,221.17c0.04,0,0.09,0.43,0.14,1.22c0.06,0.79,0.11,1.93,0.14,3.34c0.06,2.83,0,6.73-0.24,11.04
						c-0.24,4.31-0.58,8.19-0.86,11c-0.14,1.4-0.27,2.54-0.37,3.32c-0.1,0.78-0.17,1.22-0.21,1.21c-0.04,0-0.03-0.44,0-1.23
						c0.05-0.9,0.12-2.02,0.2-3.34c0.19-2.93,0.43-6.76,0.71-11c0.24-4.3,0.37-8.19,0.4-11.01c0.01-1.32,0.02-2.44,0.03-3.34
						C226.01,221.61,226.04,221.17,226.07,221.17z"/>
				</g>
			</g>
		</g>
		<g class="st10">
			<g>
				<path d="M227.29,288.11c6.3,2.34,13.2,2.54,19.9,1.95c6.69-0.59,13.31-1.92,20-2.56c10.12-0.96,20.38-0.3,30.29,1.96
					c0.7,0.16,1.43,0.33,2.14,0.2c0.71-0.13,1.41-0.63,1.52-1.34c0.17-1.12-1.05-1.9-2.09-2.34c-22.77-9.58-49.61-8.98-71.93,1.61"
					/>
			</g>
		</g>
		<g>
			<g>
				<path class="st8" d="M323.75,182.44l-35.51-17.68c-9.33-1.09-16.88-0.74-16.88-0.74h-23.51c0,0-28.49,8.4-33.19,16.15
					l-12.21,36.6l24.14,3.65l0,0l3.01,26.3c0,0-2.99,30.45-2.99,34.87c0,4.42,0.38,6.11,0.38,6.11s48.29-7.34,60.18-3.47
					c11.89,3.87,15.11,3.47,15.11,3.47s-0.99-12.64-1.88-19.97l-2.76-36.69l-2.04-28.02l22.35,6.84L323.75,182.44z"/>
			</g>
			<g>
				<path class="st5" d="M226.36,220.7c-0.09,0.01-0.32-1.51-0.86-3.95c-0.54-2.43-1.43-5.77-2.79-9.34
					c-1.37-3.57-2.93-6.69-4.14-8.92c-0.57-1.03-1.06-1.91-1.46-2.62c-0.35-0.62-0.53-0.97-0.49-0.99c0.03-0.02,0.27,0.3,0.68,0.89
					c0.41,0.59,0.97,1.46,1.62,2.56c1.3,2.19,2.94,5.31,4.32,8.91c1.38,3.6,2.22,6.98,2.66,9.44c0.22,1.23,0.36,2.23,0.43,2.93
					C226.37,220.31,226.4,220.7,226.36,220.7z"/>
			</g>
			<g>
				<path class="st5" d="M271.91,231.09c0.02,0.01-0.03,0.17-0.12,0.48c-0.12,0.37-0.27,0.81-0.45,1.35
					c-0.2,0.59-0.45,1.3-0.78,2.12c-0.33,0.82-0.68,1.76-1.14,2.77c-0.87,2.04-2.03,4.42-3.42,6.99c-1.42,2.56-3.1,5.32-5.03,8.1
					c-1.95,2.77-3.97,5.29-5.89,7.5c-1.94,2.2-3.78,4.1-5.4,5.61c-0.79,0.78-1.55,1.43-2.21,2.02c-0.65,0.59-1.24,1.07-1.72,1.46
					c-0.45,0.36-0.81,0.65-1.12,0.89c-0.26,0.2-0.4,0.3-0.41,0.28c-0.01-0.01,0.11-0.14,0.35-0.36c0.28-0.26,0.63-0.58,1.05-0.96
					c0.46-0.41,1.03-0.91,1.66-1.52c0.63-0.61,1.38-1.27,2.15-2.06c1.58-1.54,3.38-3.46,5.29-5.66c1.89-2.22,3.89-4.74,5.83-7.49
					c1.92-2.76,3.6-5.5,5.04-8.04c1.41-2.55,2.6-4.9,3.5-6.91c0.48-0.99,0.85-1.92,1.2-2.73c0.36-0.8,0.64-1.5,0.86-2.08
					c0.22-0.53,0.4-0.96,0.54-1.32C271.82,231.24,271.89,231.09,271.91,231.09z"/>
			</g>
			<g>
				<g>
					<path class="st5" d="M288.32,167.18c0.1,0.05-1.33,1.47-1.87,4.46c-0.28,1.47-0.28,3.28,0.03,5.25c0.3,1.97,0.9,4.1,1.5,6.34
						c1.23,4.48,2.52,8.47,3.51,11.35c0.47,1.36,0.86,2.5,1.18,3.41c0.28,0.8,0.42,1.26,0.38,1.27c-0.03,0.01-0.24-0.41-0.58-1.19
						c-0.34-0.78-0.8-1.93-1.34-3.35c-1.08-2.85-2.44-6.85-3.67-11.34c-0.6-2.24-1.19-4.39-1.47-6.41c-0.3-2.01-0.25-3.88,0.08-5.4
						c0.32-1.52,0.9-2.66,1.37-3.37C287.94,167.48,288.3,167.16,288.32,167.18z"/>
				</g>
			</g>
		</g>
		<g>
			<g>
				<path class="st1" d="M221.3,205.71c0.04,0.04-0.6,0.68-1.89,1.29c-1.28,0.61-3.28,1.11-5.46,0.78
					c-2.18-0.33-3.95-1.41-4.99-2.37c-1.06-0.97-1.47-1.76-1.42-1.79c0.07-0.05,0.59,0.65,1.66,1.51c1.06,0.86,2.76,1.82,4.83,2.14
					c2.06,0.31,3.97-0.1,5.24-0.61C220.54,206.16,221.25,205.64,221.3,205.71z"/>
			</g>
		</g>
		<g>
			<g>
				<path class="st1" d="M289.37,189.2c0.02,0.01-0.09,0.27-0.3,0.77c-0.21,0.5-0.56,1.22-1.05,2.12c-1,1.79-2.61,4.34-5.28,6.91
					c-2.65,2.54-6.46,5.07-11.27,6.13c-2.39,0.53-5,0.72-7.64,0.33c-2.66-0.36-5.27-1.39-7.74-2.75c-4.91-2.74-9.06-6.21-13.6-7.87
					c-4.5-1.73-9.03-1.53-12.54-0.69c-3.55,0.85-6.14,2.4-7.79,3.57c-1.64,1.22-2.41,2.06-2.45,2.01c0,0,0.71-0.9,2.33-2.18
					c1.63-1.24,4.23-2.85,7.82-3.77c3.55-0.9,8.17-1.15,12.79,0.6c4.65,1.67,8.83,5.16,13.68,7.86c2.43,1.34,4.97,2.34,7.56,2.7
					c2.58,0.39,5.13,0.22,7.47-0.29c4.71-1.02,8.48-3.46,11.12-5.93c2.66-2.5,4.31-4.99,5.36-6.74c0.51-0.88,0.88-1.59,1.13-2.07
					C289.22,189.44,289.36,189.19,289.37,189.2z"/>
			</g>
		</g>
		<g>
			<g>
				<path class="st1" d="M311.61,176.37c0.03-0.01,0.21,0.39,0.46,1.15c0.24,0.76,0.5,1.9,0.58,3.34c0.07,1.43-0.03,3.17-0.56,5
					c-0.51,1.83-1.42,3.77-2.81,5.48c-1.4,1.72-3.09,2.96-4.46,4.21c-1.39,1.23-2.45,2.54-3.03,3.81c-0.59,1.26-0.73,2.41-0.66,3.18
					c0.06,0.78,0.23,1.19,0.18,1.21c-0.02,0.01-0.07-0.09-0.15-0.29c-0.08-0.2-0.17-0.5-0.23-0.9c-0.13-0.8-0.05-2.02,0.53-3.35
					c0.55-1.35,1.64-2.74,3.04-4.01c1.37-1.3,3.04-2.53,4.38-4.19c2.72-3.33,3.48-7.37,3.4-10.14
					C312.21,178.06,311.49,176.4,311.61,176.37z"/>
			</g>
		</g>
		<g>
			<g>
				<path class="st1" d="M253.84,260.68c0.01,0.03-0.36,0.17-1.04,0.36c-0.68,0.19-1.68,0.45-2.94,0.63
					c-1.26,0.15-2.83,0.27-4.49-0.26c-0.82-0.26-1.64-0.71-2.35-1.32c-0.71-0.62-1.3-1.38-1.92-2.1c-0.62-0.73-1.28-1.36-2.01-1.85
					c-0.74-0.49-1.52-0.84-2.29-1.1c-1.55-0.51-3.06-0.55-4.29-0.41c-1.23,0.14-2.19,0.5-2.82,0.8c-0.64,0.29-0.97,0.5-0.99,0.46
					c-0.01-0.02,0.28-0.29,0.9-0.64c0.62-0.36,1.59-0.78,2.86-0.98c1.27-0.19,2.84-0.19,4.48,0.32c0.82,0.25,1.65,0.62,2.43,1.13
					c0.78,0.52,1.5,1.2,2.12,1.94c0.63,0.74,1.21,1.47,1.86,2.06c0.66,0.58,1.4,1,2.17,1.25c1.54,0.52,3.06,0.46,4.3,0.35
					C252.3,261.02,253.82,260.59,253.84,260.68z"/>
			</g>
		</g>
		<g>
			<g>
				<path class="st1" d="M299.83,258.55c0.01,0.01-0.1,0.11-0.32,0.27c-0.22,0.15-0.53,0.42-0.99,0.67
					c-0.88,0.55-2.24,1.22-4.04,1.69c-1.8,0.44-4.04,0.73-6.49,0.38c-2.44-0.3-5.07-1.28-7.38-2.96c-2.29-1.69-4.11-3.68-5.9-5.3
					c-1.77-1.65-3.57-2.89-5.24-3.61c-1.66-0.74-3.15-0.93-4.16-0.92c-1.02,0.02-1.57,0.17-1.58,0.12c0-0.02,0.13-0.06,0.39-0.13
					c0.26-0.08,0.66-0.15,1.18-0.19c1.03-0.08,2.58,0.06,4.31,0.78c1.73,0.69,3.61,1.94,5.41,3.59c1.83,1.62,3.65,3.6,5.88,5.24
					c2.24,1.63,4.76,2.59,7.14,2.9c2.37,0.37,4.57,0.13,6.33-0.26c1.77-0.42,3.13-1.02,4.03-1.51
					C299.33,258.83,299.8,258.5,299.83,258.55z"/>
			</g>
		</g>
	</g>
</g>
<g id="Magnifying_Glass">
	<g>
		<g>
			<g>
				<g>
					<g>
						<g>
							<g>
								<path class="st5" d="M384.83,116.06c-9.32-4.44-17.39-11.73-22.74-21.44c-6.59-11.96-8.13-25.77-4.33-38.89
									c3.8-13.12,12.48-23.98,24.44-30.57c24.69-13.61,55.85-4.59,69.46,20.1l0,0c6.59,11.96,8.13,25.78,4.33,38.89
									s-12.48,23.97-24.44,30.57C416.58,122.98,399.21,122.91,384.83,116.06z M427.45,26.92c-13.42-6.39-29.62-6.46-43.6,1.24
									c-11.16,6.15-19.26,16.28-22.8,28.52c-3.54,12.24-2.11,25.13,4.04,36.29c6.15,11.16,16.28,19.26,28.52,22.8
									c12.24,3.54,25.13,2.11,36.29-4.04c11.16-6.15,19.26-16.28,22.8-28.52c3.54-12.24,2.11-25.13-4.04-36.29
									C443.67,37.86,436.14,31.06,427.45,26.92z"/>
							</g>
						</g>
					</g>
				</g>
				<g>
					<g>
						<g>
							<g>
								<path class="st5" d="M471.11,171.95L471.11,171.95c-2.99,1.84-6.9,0.91-8.74-2.07l-33.44-54.18
									c-0.32-0.51-0.16-1.19,0.36-1.5l7.13-4.4c0.5-0.31,1.16-0.17,1.48,0.32l35.17,52.91
									C475.05,166.01,474.17,170.06,471.11,171.95z"/>
							</g>
						</g>
					</g>
				</g>
			</g>
			<g>
				<g>
					<g>
						<g>
							<g>
								<path class="st9" d="M386.06,113.48c-9.32-4.44-17.39-11.73-22.74-21.44c-6.59-11.96-8.13-25.77-4.33-38.89
									c3.8-13.12,12.48-23.98,24.44-30.57c24.69-13.61,55.85-4.59,69.46,20.1l0,0c6.59,11.96,8.13,25.78,4.33,38.89
									c-3.8,13.12-12.48,23.97-24.44,30.57C417.81,120.4,400.44,120.33,386.06,113.48z M428.68,24.34
									c-13.42-6.39-29.62-6.46-43.6,1.24c-11.16,6.15-19.26,16.28-22.8,28.52c-3.54,12.24-2.11,25.13,4.04,36.29
									c6.15,11.16,16.28,19.26,28.52,22.8c12.24,3.54,25.13,2.11,36.29-4.04c11.16-6.15,19.26-16.28,22.8-28.52
									c3.54-12.24,2.11-25.13-4.04-36.29C444.9,35.28,437.37,28.48,428.68,24.34z"/>
							</g>
						</g>
					</g>
				</g>
				<g>
					<g>
						<g>
							<g>
								<path class="st9" d="M472.48,171.1l-0.52,0.32c-2.33,1.44-5.39,0.71-6.83-1.62l-35.56-57.62l8.96-5.53l35.56,57.62
									C475.54,166.61,474.81,169.66,472.48,171.1z"/>
							</g>
						</g>
					</g>
				</g>
			</g>
		</g>
		<g>
			<g>
				<g>
					<g>
						<path class="st2" d="M369.94,55.22c-0.03-0.01,0.07-0.57,0.28-1.58c0.1-0.51,0.24-1.13,0.47-1.82c0.22-0.7,0.43-1.51,0.8-2.37
							c0.17-0.43,0.35-0.88,0.54-1.35c0.19-0.47,0.44-0.93,0.67-1.42c0.45-1,1.06-1.99,1.67-3.05c1.31-2.07,2.93-4.24,4.9-6.28
							c1.99-2.02,4.11-3.7,6.14-5.07c1.04-0.64,2.02-1.28,3.01-1.75c0.49-0.24,0.94-0.51,1.41-0.71c0.46-0.2,0.91-0.39,1.34-0.57
							c0.84-0.39,1.65-0.62,2.34-0.86c0.69-0.25,1.3-0.41,1.81-0.52c1.01-0.24,1.56-0.36,1.57-0.33c0.01,0.03-0.54,0.21-1.52,0.51
							c-0.49,0.14-1.1,0.32-1.77,0.6c-0.68,0.26-1.47,0.52-2.3,0.92c-0.42,0.19-0.86,0.39-1.31,0.59c-0.45,0.21-0.9,0.48-1.38,0.73
							c-0.96,0.48-1.92,1.12-2.95,1.77c-2,1.37-4.08,3.04-6.04,5.03c-1.94,2.02-3.55,4.14-4.86,6.18c-0.62,1.04-1.23,2.02-1.69,2.99
							c-0.24,0.48-0.49,0.94-0.69,1.4c-0.19,0.46-0.38,0.9-0.56,1.33c-0.38,0.83-0.61,1.63-0.86,2.32
							c-0.26,0.68-0.42,1.29-0.55,1.79C370.14,54.68,369.97,55.23,369.94,55.22z"/>
					</g>
				</g>
			</g>
		</g>
	</g>
</g>
</svg>
