<svg xmlns="http://www.w3.org/2000/svg" xmlns:xlink="http://www.w3.org/1999/xlink" width="500" zoomAndPan="magnify" viewBox="0 0 375 374.999991" height="500" preserveAspectRatio="xMidYMid meet" version="1.0"><defs><clipPath id="id1"><path d="M 46.34375 175 L 120 175 L 120 212 L 46.34375 212 Z M 46.34375 175 " clip-rule="nonzero"/></clipPath><clipPath id="id2"><path d="M 254 175 L 328.34375 175 L 328.34375 212 L 254 212 Z M 254 175 " clip-rule="nonzero"/></clipPath><clipPath id="id3"><path d="M 113 101.523438 L 261 101.523438 L 261 273.273438 L 113 273.273438 Z M 113 101.523438 " clip-rule="nonzero"/></clipPath></defs><path fill="#666666" d="M 205.734375 218.046875 C 205.738281 216.925781 205.640625 215.816406 205.441406 214.714844 C 205.238281 213.609375 204.941406 212.535156 204.546875 211.488281 C 204.148438 210.4375 203.660156 209.4375 203.078125 208.476562 C 202.5 207.519531 201.835938 206.621094 201.09375 205.78125 C 200.347656 204.945312 199.535156 204.179688 198.652344 203.492188 C 197.765625 202.804688 196.828125 202.199219 195.832031 201.683594 C 194.839844 201.164062 193.804688 200.742188 192.734375 200.414062 C 191.664062 200.085938 190.570312 199.855469 189.457031 199.726562 C 188.34375 199.601562 187.226562 199.574219 186.109375 199.648438 C 184.992188 199.722656 183.890625 199.898438 182.804688 200.175781 C 181.71875 200.453125 180.664062 200.824219 179.648438 201.292969 C 178.628906 201.761719 177.664062 202.320312 176.746094 202.964844 C 175.832031 203.613281 174.980469 204.335938 174.199219 205.136719 C 173.414062 205.9375 172.710938 206.804688 172.082031 207.734375 C 171.457031 208.664062 170.921875 209.640625 170.476562 210.667969 C 170.03125 211.695312 169.679688 212.757812 169.425781 213.847656 C 169.175781 214.941406 169.023438 216.046875 168.972656 217.164062 C 168.921875 218.285156 168.972656 219.398438 169.125 220.511719 C 169.277344 221.621094 169.53125 222.707031 169.882812 223.769531 C 170.234375 224.835938 170.679688 225.859375 171.21875 226.839844 C 171.757812 227.824219 172.382812 228.75 173.089844 229.617188 C 173.800781 230.484375 174.578125 231.28125 175.433594 232.007812 C 176.289062 232.734375 177.199219 233.375 178.171875 233.9375 C 179.144531 234.496094 180.15625 234.960938 181.214844 235.335938 L 181.214844 267.085938 L 193.476562 267.085938 L 193.476562 235.335938 C 194.363281 235.019531 195.222656 234.640625 196.054688 234.191406 C 196.882812 233.746094 197.675781 233.238281 198.429688 232.671875 C 199.179688 232.101562 199.886719 231.480469 200.542969 230.804688 C 201.199219 230.125 201.800781 229.402344 202.347656 228.636719 C 202.890625 227.867188 203.375 227.058594 203.796875 226.214844 C 204.21875 225.371094 204.574219 224.5 204.859375 223.605469 C 205.148438 222.707031 205.363281 221.789062 205.511719 220.859375 C 205.660156 219.929688 205.734375 218.992188 205.734375 218.046875 Z M 187.34375 224.179688 C 186.941406 224.179688 186.542969 224.140625 186.148438 224.058594 C 185.753906 223.980469 185.371094 223.867188 185 223.710938 C 184.625 223.558594 184.273438 223.367188 183.9375 223.144531 C 183.605469 222.921875 183.292969 222.667969 183.007812 222.382812 C 182.726562 222.097656 182.46875 221.789062 182.246094 221.453125 C 182.023438 221.117188 181.835938 220.765625 181.679688 220.394531 C 181.527344 220.023438 181.410156 219.640625 181.332031 219.242188 C 181.253906 218.847656 181.214844 218.449219 181.214844 218.046875 C 181.214844 217.644531 181.253906 217.246094 181.332031 216.851562 C 181.410156 216.457031 181.527344 216.074219 181.679688 215.703125 C 181.835938 215.332031 182.023438 214.976562 182.246094 214.640625 C 182.46875 214.308594 182.726562 214 183.007812 213.714844 C 183.292969 213.429688 183.605469 213.175781 183.9375 212.953125 C 184.273438 212.726562 184.625 212.539062 185 212.382812 C 185.371094 212.230469 185.753906 212.113281 186.148438 212.035156 C 186.542969 211.957031 186.941406 211.917969 187.34375 211.917969 C 187.746094 211.917969 188.144531 211.957031 188.539062 212.035156 C 188.933594 212.113281 189.320312 212.230469 189.691406 212.382812 C 190.0625 212.539062 190.414062 212.726562 190.75 212.953125 C 191.085938 213.175781 191.394531 213.429688 191.679688 213.714844 C 191.964844 214 192.21875 214.308594 192.441406 214.640625 C 192.664062 214.976562 192.855469 215.332031 193.007812 215.703125 C 193.164062 216.074219 193.277344 216.457031 193.355469 216.851562 C 193.433594 217.246094 193.476562 217.644531 193.476562 218.046875 C 193.476562 218.449219 193.433594 218.847656 193.355469 219.242188 C 193.277344 219.640625 193.164062 220.023438 193.007812 220.394531 C 192.855469 220.765625 192.664062 221.117188 192.441406 221.453125 C 192.21875 221.789062 191.964844 222.097656 191.679688 222.382812 C 191.394531 222.667969 191.085938 222.921875 190.75 223.144531 C 190.414062 223.367188 190.0625 223.558594 189.691406 223.710938 C 189.320312 223.867188 188.933594 223.980469 188.539062 224.058594 C 188.144531 224.140625 187.746094 224.179688 187.34375 224.179688 Z M 187.34375 224.179688 " fill-opacity="1" fill-rule="nonzero"/><g clip-path="url(#id1)"><path fill="#666666" d="M 82.023438 187.398438 C 81.785156 186.722656 81.507812 186.0625 81.191406 185.421875 C 80.875 184.777344 80.523438 184.15625 80.132812 183.554688 C 79.746094 182.953125 79.324219 182.375 78.867188 181.820312 C 78.410156 181.269531 77.925781 180.746094 77.40625 180.25 C 76.890625 179.753906 76.34375 179.289062 75.773438 178.859375 C 75.203125 178.425781 74.609375 178.027344 73.988281 177.667969 C 73.371094 177.304688 72.734375 176.976562 72.078125 176.691406 C 71.421875 176.402344 70.753906 176.152344 70.066406 175.945312 C 69.382812 175.734375 68.6875 175.566406 67.980469 175.4375 C 67.277344 175.308594 66.566406 175.222656 65.851562 175.175781 C 65.136719 175.128906 64.421875 175.125 63.707031 175.164062 C 62.992188 175.203125 62.28125 175.28125 61.574219 175.402344 C 60.867188 175.523438 60.171875 175.6875 59.484375 175.890625 C 58.796875 176.089844 58.125 176.332031 57.464844 176.613281 C 56.804688 176.894531 56.164062 177.214844 55.542969 177.570312 C 54.921875 177.925781 54.324219 178.316406 53.746094 178.742188 C 53.171875 179.167969 52.621094 179.628906 52.097656 180.117188 C 51.578125 180.609375 51.085938 181.128906 50.621094 181.675781 C 50.160156 182.222656 49.734375 182.796875 49.335938 183.394531 C 48.941406 183.992188 48.585938 184.609375 48.261719 185.25 C 47.9375 185.890625 47.65625 186.546875 47.410156 187.21875 C 47.164062 187.890625 46.957031 188.578125 46.792969 189.273438 C 46.625 189.96875 46.5 190.675781 46.417969 191.386719 C 46.335938 192.097656 46.292969 192.8125 46.292969 193.527344 C 46.292969 194.246094 46.335938 194.957031 46.417969 195.671875 C 46.5 196.382812 46.625 197.085938 46.792969 197.78125 C 46.957031 198.480469 47.164062 199.164062 47.410156 199.839844 C 47.65625 200.511719 47.9375 201.167969 48.261719 201.808594 C 48.585938 202.445312 48.941406 203.066406 49.335938 203.664062 C 49.734375 204.261719 50.160156 204.832031 50.621094 205.382812 C 51.085938 205.929688 51.578125 206.449219 52.097656 206.9375 C 52.621094 207.429688 53.171875 207.886719 53.746094 208.3125 C 54.324219 208.738281 54.921875 209.128906 55.542969 209.484375 C 56.164062 209.84375 56.804688 210.160156 57.464844 210.441406 C 58.125 210.722656 58.796875 210.964844 59.484375 211.167969 C 60.171875 211.371094 60.867188 211.53125 61.574219 211.652344 C 62.28125 211.773438 62.992188 211.855469 63.707031 211.890625 C 64.421875 211.929688 65.136719 211.925781 65.851562 211.882812 C 66.566406 211.835938 67.277344 211.75 67.980469 211.621094 C 68.6875 211.492188 69.382812 211.324219 70.066406 211.113281 C 70.753906 210.902344 71.421875 210.652344 72.078125 210.367188 C 72.734375 210.078125 73.371094 209.753906 73.988281 209.390625 C 74.609375 209.027344 75.203125 208.628906 75.773438 208.199219 C 76.34375 207.765625 76.890625 207.304688 77.40625 206.808594 C 77.925781 206.3125 78.410156 205.789062 78.867188 205.234375 C 79.324219 204.683594 79.746094 204.105469 80.132812 203.503906 C 80.523438 202.902344 80.875 202.277344 81.191406 201.636719 C 81.507812 200.992188 81.785156 200.332031 82.023438 199.660156 L 119.910156 199.660156 L 119.910156 187.398438 Z M 64.734375 199.660156 C 64.332031 199.660156 63.933594 199.617188 63.539062 199.539062 C 63.144531 199.460938 62.761719 199.34375 62.390625 199.191406 C 62.019531 199.039062 61.664062 198.847656 61.328125 198.625 C 60.996094 198.402344 60.683594 198.148438 60.402344 197.863281 C 60.117188 197.578125 59.863281 197.269531 59.636719 196.933594 C 59.414062 196.597656 59.226562 196.246094 59.070312 195.875 C 58.917969 195.503906 58.800781 195.117188 58.722656 194.722656 C 58.644531 194.328125 58.605469 193.929688 58.605469 193.527344 C 58.605469 193.125 58.644531 192.726562 58.722656 192.332031 C 58.800781 191.9375 58.917969 191.554688 59.070312 191.183594 C 59.226562 190.8125 59.414062 190.457031 59.636719 190.121094 C 59.863281 189.789062 60.117188 189.476562 60.402344 189.195312 C 60.683594 188.910156 60.996094 188.65625 61.328125 188.429688 C 61.664062 188.207031 62.019531 188.019531 62.390625 187.863281 C 62.761719 187.710938 63.144531 187.59375 63.539062 187.515625 C 63.933594 187.4375 64.332031 187.398438 64.734375 187.398438 C 65.136719 187.398438 65.535156 187.4375 65.929688 187.515625 C 66.328125 187.59375 66.710938 187.710938 67.082031 187.863281 C 67.453125 188.019531 67.808594 188.207031 68.140625 188.429688 C 68.476562 188.65625 68.785156 188.910156 69.070312 189.195312 C 69.355469 189.476562 69.609375 189.789062 69.832031 190.121094 C 70.054688 190.457031 70.246094 190.8125 70.398438 191.183594 C 70.554688 191.554688 70.667969 191.9375 70.75 192.332031 C 70.828125 192.726562 70.867188 193.125 70.867188 193.527344 C 70.867188 193.929688 70.828125 194.328125 70.75 194.722656 C 70.667969 195.117188 70.554688 195.503906 70.398438 195.875 C 70.246094 196.246094 70.054688 196.597656 69.832031 196.933594 C 69.609375 197.269531 69.355469 197.578125 69.070312 197.863281 C 68.785156 198.148438 68.476562 198.402344 68.140625 198.625 C 67.808594 198.847656 67.453125 199.039062 67.082031 199.191406 C 66.710938 199.34375 66.328125 199.460938 65.929688 199.539062 C 65.535156 199.617188 65.136719 199.660156 64.734375 199.660156 Z M 64.734375 199.660156 " fill-opacity="1" fill-rule="nonzero"/></g><path fill="#666666" d="M 83.125 224.179688 C 82.007812 224.175781 80.894531 224.273438 79.792969 224.472656 C 78.6875 224.671875 77.613281 224.972656 76.566406 225.367188 C 75.515625 225.765625 74.515625 226.253906 73.554688 226.832031 C 72.597656 227.414062 71.699219 228.074219 70.859375 228.820312 C 70.023438 229.566406 69.257812 230.378906 68.570312 231.261719 C 67.878906 232.148438 67.277344 233.085938 66.761719 234.078125 C 66.242188 235.074219 65.820312 236.105469 65.492188 237.179688 C 65.164062 238.25 64.933594 239.339844 64.804688 240.453125 C 64.675781 241.566406 64.648438 242.683594 64.726562 243.800781 C 64.800781 244.921875 64.976562 246.023438 65.253906 247.109375 C 65.53125 248.195312 65.902344 249.246094 66.371094 250.261719 C 66.839844 251.28125 67.398438 252.25 68.042969 253.164062 C 68.691406 254.078125 69.414062 254.929688 70.214844 255.714844 C 71.015625 256.496094 71.882812 257.203125 72.8125 257.828125 C 73.742188 258.453125 74.71875 258.988281 75.746094 259.433594 C 76.777344 259.882812 77.835938 260.230469 78.925781 260.484375 C 80.019531 260.738281 81.125 260.886719 82.246094 260.9375 C 83.363281 260.988281 84.480469 260.9375 85.589844 260.785156 C 86.699219 260.632812 87.785156 260.378906 88.851562 260.027344 C 89.914062 259.675781 90.9375 259.230469 91.921875 258.691406 C 92.902344 258.152344 93.828125 257.527344 94.695312 256.820312 C 95.566406 256.113281 96.363281 255.332031 97.089844 254.476562 C 97.816406 253.625 98.457031 252.710938 99.015625 251.738281 C 99.574219 250.769531 100.042969 249.753906 100.414062 248.699219 L 119.910156 248.699219 L 119.910156 236.4375 L 100.414062 236.4375 C 100.101562 235.550781 99.71875 234.6875 99.273438 233.859375 C 98.828125 233.027344 98.320312 232.238281 97.75 231.484375 C 97.183594 230.730469 96.558594 230.027344 95.882812 229.371094 C 95.207031 228.714844 94.484375 228.113281 93.714844 227.566406 C 92.945312 227.023438 92.140625 226.539062 91.296875 226.117188 C 90.453125 225.695312 89.582031 225.339844 88.683594 225.054688 C 87.785156 224.765625 86.871094 224.550781 85.9375 224.402344 C 85.007812 224.253906 84.070312 224.179688 83.125 224.179688 Z M 83.125 248.699219 C 82.722656 248.699219 82.324219 248.660156 81.929688 248.578125 C 81.535156 248.5 81.152344 248.386719 80.78125 248.230469 C 80.410156 248.078125 80.054688 247.886719 79.722656 247.664062 C 79.386719 247.441406 79.078125 247.1875 78.792969 246.902344 C 78.507812 246.617188 78.253906 246.308594 78.03125 245.972656 C 77.804688 245.640625 77.617188 245.285156 77.464844 244.914062 C 77.308594 244.542969 77.191406 244.160156 77.113281 243.765625 C 77.035156 243.367188 76.996094 242.96875 76.996094 242.566406 C 76.996094 242.164062 77.035156 241.765625 77.113281 241.371094 C 77.191406 240.976562 77.308594 240.59375 77.464844 240.222656 C 77.617188 239.851562 77.804688 239.496094 78.03125 239.164062 C 78.253906 238.828125 78.507812 238.519531 78.792969 238.234375 C 79.078125 237.949219 79.386719 237.695312 79.722656 237.472656 C 80.054688 237.246094 80.410156 237.058594 80.78125 236.90625 C 81.152344 236.75 81.535156 236.632812 81.929688 236.554688 C 82.324219 236.476562 82.722656 236.4375 83.125 236.4375 C 83.53125 236.4375 83.929688 236.476562 84.324219 236.554688 C 84.71875 236.632812 85.101562 236.75 85.472656 236.90625 C 85.84375 237.058594 86.199219 237.246094 86.53125 237.472656 C 86.867188 237.695312 87.175781 237.949219 87.460938 238.234375 C 87.746094 238.519531 88 238.828125 88.222656 239.164062 C 88.449219 239.496094 88.636719 239.851562 88.789062 240.222656 C 88.945312 240.59375 89.0625 240.976562 89.140625 241.371094 C 89.21875 241.765625 89.257812 242.164062 89.257812 242.566406 C 89.257812 242.96875 89.21875 243.367188 89.140625 243.765625 C 89.0625 244.160156 88.945312 244.542969 88.789062 244.914062 C 88.636719 245.285156 88.449219 245.640625 88.222656 245.972656 C 88 246.308594 87.746094 246.617188 87.460938 246.902344 C 87.175781 247.1875 86.867188 247.441406 86.53125 247.664062 C 86.199219 247.886719 85.84375 248.078125 85.472656 248.230469 C 85.101562 248.386719 84.71875 248.5 84.324219 248.578125 C 83.929688 248.660156 83.53125 248.699219 83.125 248.699219 Z M 83.125 248.699219 " fill-opacity="1" fill-rule="nonzero"/><g clip-path="url(#id2)"><path fill="#666666" d="M 309.953125 175.136719 C 309.011719 175.140625 308.074219 175.214844 307.140625 175.363281 C 306.210938 175.507812 305.296875 175.726562 304.398438 176.015625 C 303.5 176.300781 302.628906 176.65625 301.785156 177.078125 C 300.941406 177.5 300.132812 177.984375 299.367188 178.527344 C 298.597656 179.074219 297.875 179.675781 297.195312 180.332031 C 296.519531 180.988281 295.898438 181.691406 295.328125 182.445312 C 294.761719 183.195312 294.253906 183.988281 293.804688 184.820312 C 293.359375 185.648438 292.980469 186.507812 292.664062 187.398438 L 254.777344 187.398438 L 254.777344 199.660156 L 292.664062 199.660156 C 293.039062 200.714844 293.503906 201.730469 294.0625 202.699219 C 294.621094 203.671875 295.265625 204.582031 295.992188 205.4375 C 296.71875 206.292969 297.515625 207.074219 298.382812 207.78125 C 299.25 208.488281 300.175781 209.113281 301.160156 209.652344 C 302.140625 210.191406 303.164062 210.636719 304.230469 210.988281 C 305.292969 211.339844 306.378906 211.59375 307.492188 211.746094 C 308.601562 211.898438 309.714844 211.949219 310.835938 211.898438 C 311.953125 211.847656 313.0625 211.695312 314.152344 211.445312 C 315.246094 211.191406 316.304688 210.84375 317.332031 210.394531 C 318.359375 209.949219 319.339844 209.414062 320.269531 208.789062 C 321.199219 208.160156 322.066406 207.457031 322.867188 206.675781 C 323.667969 205.890625 324.390625 205.039062 325.035156 204.125 C 325.683594 203.207031 326.238281 202.242188 326.707031 201.222656 C 327.175781 200.207031 327.550781 199.15625 327.828125 198.066406 C 328.101562 196.980469 328.277344 195.878906 328.355469 194.761719 C 328.429688 193.644531 328.402344 192.527344 328.273438 191.414062 C 328.144531 190.300781 327.917969 189.210938 327.589844 188.136719 C 327.261719 187.066406 326.835938 186.035156 326.320312 185.039062 C 325.800781 184.046875 325.199219 183.105469 324.511719 182.222656 C 323.820312 181.339844 323.058594 180.523438 322.21875 179.78125 C 321.382812 179.035156 320.484375 178.375 319.523438 177.792969 C 318.566406 177.214844 317.5625 176.726562 316.515625 176.328125 C 315.464844 175.933594 314.390625 175.632812 313.289062 175.433594 C 312.183594 175.234375 311.074219 175.136719 309.953125 175.136719 Z M 309.953125 199.660156 C 309.550781 199.660156 309.152344 199.617188 308.757812 199.539062 C 308.363281 199.460938 307.980469 199.34375 307.605469 199.191406 C 307.234375 199.039062 306.882812 198.847656 306.546875 198.625 C 306.210938 198.402344 305.902344 198.148438 305.617188 197.863281 C 305.332031 197.578125 305.078125 197.269531 304.855469 196.933594 C 304.632812 196.597656 304.441406 196.246094 304.289062 195.875 C 304.136719 195.503906 304.019531 195.117188 303.941406 194.722656 C 303.863281 194.328125 303.824219 193.929688 303.824219 193.527344 C 303.824219 193.125 303.863281 192.726562 303.941406 192.332031 C 304.019531 191.9375 304.136719 191.554688 304.289062 191.183594 C 304.441406 190.8125 304.632812 190.457031 304.855469 190.121094 C 305.078125 189.789062 305.332031 189.476562 305.617188 189.195312 C 305.902344 188.910156 306.210938 188.65625 306.546875 188.429688 C 306.882812 188.207031 307.234375 188.019531 307.605469 187.863281 C 307.980469 187.710938 308.363281 187.59375 308.757812 187.515625 C 309.152344 187.4375 309.550781 187.398438 309.953125 187.398438 C 310.355469 187.398438 310.753906 187.4375 311.148438 187.515625 C 311.542969 187.59375 311.925781 187.710938 312.300781 187.863281 C 312.671875 188.019531 313.023438 188.207031 313.359375 188.429688 C 313.695312 188.65625 314.003906 188.910156 314.289062 189.195312 C 314.574219 189.476562 314.828125 189.789062 315.050781 190.121094 C 315.273438 190.457031 315.460938 190.8125 315.617188 191.183594 C 315.769531 191.554688 315.886719 191.9375 315.964844 192.332031 C 316.042969 192.726562 316.082031 193.125 316.082031 193.527344 C 316.082031 193.929688 316.042969 194.328125 315.964844 194.722656 C 315.886719 195.117188 315.769531 195.503906 315.617188 195.875 C 315.460938 196.246094 315.273438 196.597656 315.050781 196.933594 C 314.828125 197.269531 314.574219 197.578125 314.289062 197.863281 C 314.003906 198.148438 313.695312 198.402344 313.359375 198.625 C 313.023438 198.847656 312.671875 199.039062 312.300781 199.191406 C 311.925781 199.34375 311.542969 199.460938 311.148438 199.539062 C 310.753906 199.617188 310.355469 199.660156 309.953125 199.660156 Z M 309.953125 199.660156 " fill-opacity="1" fill-rule="nonzero"/></g><path fill="#666666" d="M 291.5625 224.179688 C 290.617188 224.179688 289.679688 224.253906 288.75 224.402344 C 287.820312 224.550781 286.902344 224.765625 286.003906 225.054688 C 285.109375 225.339844 284.238281 225.695312 283.394531 226.117188 C 282.550781 226.539062 281.742188 227.023438 280.972656 227.566406 C 280.203125 228.113281 279.480469 228.714844 278.804688 229.371094 C 278.128906 230.027344 277.507812 230.730469 276.9375 231.484375 C 276.371094 232.238281 275.863281 233.027344 275.414062 233.859375 C 274.96875 234.6875 274.589844 235.550781 274.273438 236.4375 L 254.777344 236.4375 L 254.777344 248.699219 L 274.273438 248.699219 C 274.648438 249.753906 275.113281 250.769531 275.671875 251.738281 C 276.230469 252.710938 276.875 253.625 277.601562 254.476562 C 278.324219 255.332031 279.121094 256.113281 279.992188 256.820312 C 280.859375 257.527344 281.785156 258.152344 282.769531 258.691406 C 283.75 259.230469 284.773438 259.675781 285.839844 260.027344 C 286.902344 260.378906 287.988281 260.632812 289.097656 260.785156 C 290.210938 260.9375 291.324219 260.988281 292.445312 260.9375 C 293.5625 260.886719 294.667969 260.738281 295.761719 260.484375 C 296.851562 260.230469 297.914062 259.882812 298.941406 259.433594 C 299.96875 258.988281 300.949219 258.453125 301.878906 257.828125 C 302.808594 257.203125 303.671875 256.496094 304.472656 255.714844 C 305.277344 254.929688 306 254.078125 306.644531 253.164062 C 307.289062 252.25 307.847656 251.28125 308.316406 250.261719 C 308.785156 249.246094 309.160156 248.195312 309.433594 247.109375 C 309.710938 246.023438 309.886719 244.921875 309.964844 243.800781 C 310.039062 242.683594 310.011719 241.566406 309.882812 240.453125 C 309.753906 239.339844 309.527344 238.25 309.195312 237.179688 C 308.867188 236.105469 308.445312 235.074219 307.929688 234.078125 C 307.410156 233.085938 306.808594 232.148438 306.117188 231.261719 C 305.429688 230.378906 304.667969 229.566406 303.828125 228.820312 C 302.992188 228.074219 302.09375 227.414062 301.132812 226.832031 C 300.175781 226.253906 299.171875 225.765625 298.125 225.367188 C 297.074219 224.972656 296 224.671875 294.898438 224.472656 C 293.792969 224.273438 292.683594 224.175781 291.5625 224.179688 Z M 291.5625 248.699219 C 291.160156 248.699219 290.761719 248.660156 290.367188 248.578125 C 289.972656 248.5 289.585938 248.386719 289.214844 248.230469 C 288.84375 248.078125 288.492188 247.886719 288.15625 247.664062 C 287.820312 247.441406 287.511719 247.1875 287.226562 246.902344 C 286.941406 246.617188 286.6875 246.308594 286.464844 245.972656 C 286.242188 245.640625 286.050781 245.285156 285.898438 244.914062 C 285.742188 244.542969 285.628906 244.160156 285.550781 243.765625 C 285.46875 243.367188 285.429688 242.96875 285.429688 242.566406 C 285.429688 242.164062 285.46875 241.765625 285.550781 241.371094 C 285.628906 240.976562 285.742188 240.59375 285.898438 240.222656 C 286.050781 239.851562 286.242188 239.496094 286.464844 239.164062 C 286.6875 238.828125 286.941406 238.519531 287.226562 238.234375 C 287.511719 237.949219 287.820312 237.695312 288.15625 237.472656 C 288.492188 237.246094 288.84375 237.058594 289.214844 236.90625 C 289.585938 236.75 289.972656 236.632812 290.367188 236.554688 C 290.761719 236.476562 291.160156 236.4375 291.5625 236.4375 C 291.964844 236.4375 292.363281 236.476562 292.757812 236.554688 C 293.152344 236.632812 293.535156 236.75 293.90625 236.90625 C 294.28125 237.058594 294.632812 237.246094 294.96875 237.472656 C 295.300781 237.695312 295.613281 237.949219 295.898438 238.234375 C 296.179688 238.519531 296.433594 238.828125 296.660156 239.164062 C 296.882812 239.496094 297.070312 239.851562 297.226562 240.222656 C 297.378906 240.59375 297.496094 240.976562 297.574219 241.371094 C 297.652344 241.765625 297.691406 242.164062 297.691406 242.566406 C 297.691406 242.96875 297.652344 243.367188 297.574219 243.765625 C 297.496094 244.160156 297.378906 244.542969 297.226562 244.914062 C 297.070312 245.285156 296.882812 245.640625 296.660156 245.972656 C 296.433594 246.308594 296.179688 246.617188 295.898438 246.902344 C 295.613281 247.1875 295.300781 247.441406 294.96875 247.664062 C 294.632812 247.886719 294.28125 248.078125 293.90625 248.230469 C 293.535156 248.386719 293.152344 248.5 292.757812 248.578125 C 292.363281 248.660156 291.964844 248.699219 291.5625 248.699219 Z M 291.5625 248.699219 " fill-opacity="1" fill-rule="nonzero"/><g clip-path="url(#id3)"><path fill="#343434" d="M 150.5625 162.878906 L 150.5625 150.617188 C 150.5625 149.414062 150.621094 148.210938 150.738281 147.011719 C 150.855469 145.816406 151.035156 144.625 151.269531 143.441406 C 151.503906 142.261719 151.796875 141.09375 152.144531 139.941406 C 152.496094 138.789062 152.902344 137.65625 153.363281 136.542969 C 153.824219 135.429688 154.335938 134.34375 154.90625 133.28125 C 155.472656 132.21875 156.089844 131.1875 156.761719 130.183594 C 157.429688 129.183594 158.148438 128.21875 158.910156 127.285156 C 159.675781 126.355469 160.484375 125.464844 161.335938 124.613281 C 162.1875 123.757812 163.078125 122.953125 164.007812 122.1875 C 164.941406 121.421875 165.90625 120.707031 166.910156 120.039062 C 167.910156 119.367188 168.941406 118.75 170.003906 118.183594 C 171.066406 117.613281 172.15625 117.101562 173.269531 116.636719 C 174.382812 116.175781 175.515625 115.773438 176.667969 115.421875 C 177.820312 115.074219 178.988281 114.78125 180.167969 114.546875 C 181.351562 114.3125 182.539062 114.132812 183.738281 114.015625 C 184.9375 113.898438 186.140625 113.839844 187.34375 113.839844 C 188.550781 113.839844 189.75 113.898438 190.949219 114.015625 C 192.148438 114.132812 193.339844 114.3125 194.519531 114.546875 C 195.703125 114.78125 196.867188 115.074219 198.023438 115.421875 C 199.175781 115.773438 200.308594 116.175781 201.421875 116.636719 C 202.535156 117.101562 203.621094 117.613281 204.683594 118.183594 C 205.746094 118.75 206.777344 119.367188 207.78125 120.039062 C 208.78125 120.707031 209.746094 121.421875 210.679688 122.1875 C 211.609375 122.953125 212.5 123.757812 213.355469 124.613281 C 214.207031 125.464844 215.011719 126.355469 215.777344 127.285156 C 216.542969 128.21875 217.257812 129.183594 217.929688 130.183594 C 218.597656 131.1875 219.214844 132.21875 219.785156 133.28125 C 220.351562 134.34375 220.867188 135.429688 221.328125 136.542969 C 221.789062 137.65625 222.195312 138.789062 222.542969 139.941406 C 222.894531 141.09375 223.183594 142.261719 223.421875 143.441406 C 223.65625 144.625 223.832031 145.816406 223.949219 147.011719 C 224.066406 148.210938 224.125 149.414062 224.125 150.617188 L 236.386719 150.617188 C 236.386719 149.011719 236.308594 147.410156 236.152344 145.8125 C 235.996094 144.214844 235.757812 142.625 235.445312 141.050781 C 235.132812 139.476562 234.742188 137.921875 234.277344 136.382812 C 233.808594 134.847656 233.269531 133.335938 232.65625 131.851562 C 232.039062 130.367188 231.355469 128.917969 230.597656 127.5 C 229.839844 126.085938 229.015625 124.710938 228.121094 123.375 C 227.230469 122.039062 226.273438 120.75 225.253906 119.507812 C 224.238281 118.265625 223.160156 117.078125 222.023438 115.941406 C 220.886719 114.808594 219.699219 113.730469 218.457031 112.710938 C 217.214844 111.691406 215.925781 110.734375 214.589844 109.84375 C 213.257812 108.953125 211.878906 108.125 210.464844 107.371094 C 209.046875 106.613281 207.597656 105.925781 206.113281 105.3125 C 204.628906 104.699219 203.117188 104.15625 201.582031 103.691406 C 200.042969 103.222656 198.488281 102.835938 196.914062 102.519531 C 195.335938 102.207031 193.75 101.972656 192.152344 101.816406 C 190.554688 101.65625 188.949219 101.578125 187.34375 101.578125 C 185.738281 101.578125 184.136719 101.65625 182.539062 101.816406 C 180.9375 101.972656 179.351562 102.207031 177.777344 102.519531 C 176.199219 102.835938 174.644531 103.222656 173.109375 103.691406 C 171.570312 104.15625 170.058594 104.699219 168.578125 105.3125 C 167.09375 105.925781 165.640625 106.613281 164.226562 107.371094 C 162.808594 108.125 161.433594 108.953125 160.097656 109.84375 C 158.761719 110.734375 157.472656 111.691406 156.230469 112.710938 C 154.988281 113.730469 153.800781 114.808594 152.664062 115.941406 C 151.53125 117.078125 150.453125 118.265625 149.433594 119.507812 C 148.414062 120.75 147.457031 122.039062 146.566406 123.375 C 145.671875 124.710938 144.847656 126.085938 144.09375 127.5 C 143.335938 128.917969 142.648438 130.367188 142.035156 131.851562 C 141.417969 133.335938 140.878906 134.847656 140.414062 136.382812 C 139.945312 137.921875 139.554688 139.476562 139.242188 141.050781 C 138.929688 142.625 138.695312 144.214844 138.535156 145.8125 C 138.378906 147.410156 138.300781 149.011719 138.300781 150.617188 L 138.300781 162.878906 L 113.777344 162.878906 L 113.777344 273.21875 L 260.910156 273.21875 L 260.910156 162.878906 Z M 248.648438 260.957031 L 126.039062 260.957031 L 126.039062 175.136719 L 248.648438 175.136719 Z M 248.648438 260.957031 " fill-opacity="1" fill-rule="nonzero"/></g></svg>